<svg width="374" height="280" viewBox="0 0 374 280" fill="none" xmlns="http://www.w3.org/2000/svg">
<path d="M31.0805 223.938C30.3573 221.822 29.6418 219.629 28.9538 217.42L30.6493 216.939C31.3328 219.133 32.0436 221.311 32.7622 223.414L31.0805 223.938ZM334.406 221.205L332.65 220.998C332.941 218.745 333.218 216.476 333.473 214.255L335.231 214.438C334.976 216.668 334.698 218.944 334.406 221.205ZM27.0009 210.856C26.3818 208.673 25.7814 206.45 25.2163 204.248L26.9345 203.846C27.4962 206.035 28.0931 208.244 28.7084 210.414L27.0009 210.856ZM335.955 207.661L334.195 207.502C334.418 205.24 334.626 202.965 334.811 200.74L336.574 200.873C336.388 203.107 336.18 205.39 335.955 207.661ZM23.6001 197.601C23.0891 195.378 22.6031 193.129 22.1552 190.919L23.892 190.598C24.337 192.795 24.8203 195.03 25.3279 197.239L23.6001 197.601ZM337.081 194.076L335.316 193.969C335.466 191.709 335.597 189.429 335.706 187.193L337.473 187.272C337.364 189.517 337.232 191.806 337.081 194.076ZM20.8875 184.203C20.4942 181.952 20.13 179.682 19.8051 177.456L21.557 177.223C21.8797 179.434 22.2415 181.689 22.6323 183.925L20.8875 184.203ZM337.743 180.461L335.975 180.412C336.044 178.142 336.092 175.859 336.117 173.628L337.885 173.646C337.86 175.888 337.813 178.181 337.743 180.461ZM18.9173 170.683C18.6536 168.41 18.424 166.123 18.2351 163.887L19.9982 163.751C20.1858 165.971 20.4137 168.24 20.6755 170.497L18.9173 170.683ZM336.124 166.844C336.103 164.572 336.058 162.291 335.989 160.063L337.758 160.013C337.826 162.253 337.872 164.546 337.893 166.83L336.124 166.844ZM17.7713 157.073C17.6539 154.787 17.5761 152.491 17.5399 150.249L19.3086 150.223C19.3443 152.446 19.4216 154.723 19.5379 156.991L17.7713 157.073ZM335.705 153.287C335.584 151.018 335.434 148.741 335.261 146.52L337.025 146.395C337.199 148.629 337.349 150.919 337.472 153.201L335.705 153.287ZM19.3255 143.453L17.557 143.418C17.6062 141.125 17.7013 138.828 17.8393 136.592L19.6053 136.691C19.4683 138.907 19.3741 141.181 19.3255 143.453ZM334.648 139.767C334.411 137.499 334.144 135.233 333.852 133.033L335.607 132.821C335.901 135.036 336.17 137.317 336.408 139.6L334.648 139.767ZM20.1661 129.948L18.406 129.779C18.6463 127.495 18.9392 125.212 19.2767 122.993L21.0272 123.236C20.6935 125.43 20.4036 127.689 20.1661 129.948ZM332.862 126.324C332.494 124.07 332.09 121.824 331.661 119.649L333.4 119.336C333.832 121.529 334.239 123.792 334.61 126.064L332.862 126.324ZM123.657 126.085C121.199 125.715 119.421 124.647 116.958 122.802L118.076 121.493C120.234 123.105 121.792 124.072 123.845 124.406L123.657 126.085ZM129.794 122.067L128.219 121.298C129.029 119.784 129.744 117.683 130.346 115.053L132.074 115.414C131.431 118.224 130.685 120.4 129.794 122.067ZM111.767 117.957C110.358 116.459 108.852 114.734 107.163 112.685L108.553 111.64C110.218 113.66 111.699 115.358 113.083 116.829L111.767 117.957ZM22.2088 116.572L20.4722 116.25C20.9304 113.995 21.4489 111.747 22.0133 109.568L23.7305 109.973C23.1733 112.125 22.6613 114.345 22.2088 116.572ZM330.232 113.018C329.708 110.787 329.143 108.575 328.552 106.444L330.262 106.012C330.858 108.164 331.429 110.397 331.957 112.649L330.232 113.018ZM133.265 108.615L131.51 108.4C131.782 106.384 132.026 104.176 132.255 101.65L134.017 101.796C133.786 104.345 133.54 106.576 133.265 108.615ZM102.83 107.242C101.393 105.388 99.9012 103.428 98.6161 101.736L100.048 100.744C101.331 102.433 102.819 104.389 104.252 106.237L102.83 107.242ZM232.336 107.103C230.959 107.103 229.607 106.71 228.319 105.935L229.262 104.506C231.197 105.673 233.101 105.675 235.156 104.745L235.917 106.27C234.702 106.823 233.497 107.103 232.336 107.103ZM25.6121 103.464L23.9204 102.97C24.6232 100.775 25.3943 98.5922 26.2124 96.4819L27.8712 97.0683C27.0652 99.1483 26.3051 101.3 25.6121 103.464ZM241.701 101.854L240.402 100.708C241.743 99.3205 243.181 97.6096 244.797 95.4766L246.23 96.4672C244.572 98.6547 243.091 100.417 241.701 101.854ZM223.289 100.692C222.145 99.0056 221.01 97.0195 219.821 94.6207L221.42 93.898C222.575 96.2285 223.672 98.1503 224.774 99.7732L223.289 100.692ZM326.598 99.9442C325.885 97.7556 325.125 95.601 324.338 93.5405L326 92.9616C326.796 95.0476 327.566 97.2281 328.287 99.4427L326.598 99.9442ZM94.4239 96.2293C92.8054 94.1172 91.4567 92.3832 90.1793 90.7724L91.5895 89.7527C92.873 91.371 94.2272 93.1121 95.8515 95.2319L94.4239 96.2293ZM134.549 94.9738L132.784 94.8648C132.918 92.8857 133.054 90.6614 133.201 88.0646L134.967 88.1556C134.82 90.7583 134.684 92.9885 134.549 94.9738ZM30.5228 90.8154L28.9045 90.1334C29.8755 88.0332 30.9104 85.971 32.0099 83.9543L33.5785 84.7353C32.4965 86.7195 31.4785 88.7487 30.5228 90.8154ZM250.283 90.8151L248.805 89.887C250.062 88.0621 251.36 86.1285 252.674 84.1751L254.162 85.0882C252.845 87.0467 251.545 88.9818 250.283 90.8151ZM216.974 88.3169C216.173 86.3977 215.345 84.3039 214.443 81.9157L216.107 81.3426C217.002 83.713 217.823 85.7896 218.617 87.6913L216.974 88.3169ZM321.736 87.2634C320.785 85.148 319.779 83.0931 318.746 81.1558L320.322 80.3893C321.372 82.3592 322.395 84.4478 323.361 86.597L321.736 87.2634ZM85.8119 85.4199C84.2068 83.5174 82.7129 81.824 81.2444 80.243L82.5678 79.1222C84.0549 80.7232 85.5667 82.4366 87.1895 84.3602L85.8119 85.4199ZM135.335 81.3413L133.569 81.2563C133.688 78.9995 133.806 76.7417 133.932 74.4441L135.699 74.5326C135.573 76.8289 135.454 79.0857 135.335 81.3413ZM258.041 79.3831L256.565 78.4517C258.043 76.3162 259.365 74.4689 260.606 72.8043L262.047 73.7841C260.818 75.4326 259.507 77.264 258.041 79.3831ZM37.0865 78.9063L35.5956 77.9973C36.9856 75.9185 38.4188 74.0408 39.8555 72.4168L41.2069 73.5068C39.8207 75.0738 38.4346 76.8904 37.0865 78.9063ZM212.081 75.4699C211.27 73.1998 210.474 70.9284 209.802 69.0058L211.48 68.4714C212.151 70.3911 212.945 72.6589 213.755 74.9242L212.081 75.4699ZM76.3807 75.3515C74.5728 73.6706 72.7951 72.1858 71.097 70.938L72.1758 69.5993C73.9279 70.8868 75.7579 72.415 77.6148 74.1413L76.3807 75.3515ZM315.311 75.2794C314.044 73.3043 312.715 71.4362 311.361 69.7271L312.772 68.7082C314.16 70.461 315.522 72.3749 316.819 74.3967L315.311 75.2794ZM46.1684 68.9111L45.0955 67.5681C47.2079 66.0292 49.4064 64.9195 51.63 64.2698L52.1475 65.8851C50.1252 66.4761 48.1135 67.4941 46.1684 68.9111ZM266.313 68.3945L264.939 67.3309C266.598 65.3762 268.17 63.6943 269.745 62.189L270.996 63.3828C269.465 64.8464 267.933 66.4857 266.313 68.3945ZM136.095 67.7303L134.329 67.6299C134.483 65.1745 134.635 62.9448 134.794 60.8132L136.559 60.9337C136.4 63.0586 136.248 65.2818 136.095 67.7303ZM65.2487 67.3766C63.0415 66.3276 60.8704 65.6582 58.7957 65.3868L59.0358 63.7131C61.3015 64.0096 63.6569 64.7333 66.0367 65.8643L65.2487 67.3766ZM306.811 64.6461C305.108 62.98 303.344 61.5093 301.57 60.2751L302.611 58.9097C304.466 60.1995 306.305 61.7325 308.077 63.4662L306.811 64.6461ZM207.546 62.5421C206.666 60.0288 205.941 57.9795 205.264 56.093L206.937 55.5454C207.615 57.4362 208.342 59.4892 209.223 62.0065L207.546 62.5421ZM276.29 59.071L275.276 57.687C277.452 56.2337 279.649 55.1572 281.807 54.4878L282.354 56.0944C280.362 56.7121 278.322 57.7135 276.29 59.071ZM295.591 57.0015C293.4 56.1191 291.183 55.5731 289 55.3784L289.164 53.6965C291.527 53.9073 293.921 54.4956 296.279 55.4453L295.591 57.0015ZM137.125 54.1521L135.363 54.0027C135.583 51.6326 135.823 49.3437 136.076 47.1995L137.834 47.3883C137.582 49.5195 137.344 51.795 137.125 54.1521ZM202.91 49.6682C202.055 47.3899 201.25 45.3074 200.448 43.3015L202.1 42.6989C202.907 44.7157 203.716 46.8091 204.575 49.0985L202.91 49.6682ZM138.734 40.6527L136.983 40.4111C137.341 38.0461 137.734 35.7716 138.152 33.6511L139.89 33.9633C139.477 36.0606 139.088 38.3112 138.734 40.6527ZM197.82 36.9945C196.869 34.8112 195.911 32.7223 194.972 30.7859L196.577 30.0759C197.526 32.0325 198.494 34.1421 199.453 36.346L197.82 36.9945ZM141.393 27.3533L139.676 26.9438C140.293 24.5851 140.974 22.3633 141.698 20.34L143.372 20.8865C142.664 22.8648 141.998 25.0405 141.393 27.3533ZM191.83 24.7237C190.667 22.6313 189.479 20.6671 188.298 18.8855L189.793 17.9824C190.997 19.8 192.208 21.8016 193.393 23.9316L191.83 24.7237ZM146.028 14.6979L144.442 13.9504C145.604 11.703 146.892 9.71593 148.27 8.04413L149.66 9.08935C148.357 10.6688 147.136 12.5558 146.028 14.6979ZM184.244 13.4067C182.698 11.5565 181.103 9.91733 179.502 8.53514L180.689 7.2823C182.36 8.72568 184.022 10.4319 185.627 12.3534L184.244 13.4067ZM154.595 4.7111L153.642 3.28838C155.737 2.00774 158.046 1.1748 160.504 0.813293L160.773 2.48276C158.56 2.80839 156.482 3.55811 154.595 4.7111ZM173.921 4.71016C171.86 3.64941 169.714 2.92408 167.541 2.55466L167.851 0.891557C170.21 1.29266 172.534 2.07716 174.76 3.22316L173.921 4.71016Z" fill="#DCE6FF"/>
<path d="M59.6215 233.057C59.6215 233.057 14.6284 122.239 47.007 97.5631C68.649 81.0693 91.5883 117.429 118.968 98.1938C143.344 81.0692 135.595 28.969 174.47 21.7676C218.179 13.6709 227.803 110.845 263.673 97.5629C307.199 81.4461 350.496 114.164 313.079 233.269L59.6215 233.057Z" fill="#D4E8FF" fill-opacity="0.54"/>
<path d="M345.616 198.244C330.937 196.167 333.332 214.938 312.408 214.938C293.278 214.938 287.157 143.453 273.238 163.887C201.88 268.647 243.316 119.337 186.566 117.439C160.905 116.581 143.806 142.71 137.501 188.972C128.36 230.795 107.163 157.073 85.3484 163.928C71.4841 168.284 73.072 214.938 53.9412 214.938C33.0172 214.938 35.4127 196.167 20.7335 198.244C4.92913 200.481 0.20842 233.706 0.20842 233.706H366.141C366.141 233.706 361.42 200.481 345.616 198.244Z" fill="#EEF7FF" fill-opacity="0.5"/>
<path d="M332.617 218.564C319.112 217.677 321.316 225.692 302.067 225.692C284.467 225.692 284.95 207.728 273.173 203.91C251.484 196.879 233.603 232.463 225.194 214.605C209.223 167.217 162.644 143.453 141.156 214.605C132.747 232.463 113.083 200.597 93.1768 203.91C80.9238 205.95 81.8829 225.692 64.283 225.692C45.0335 225.692 47.2371 217.677 33.7327 218.564C19.193 219.519 14.8502 233.707 14.8502 233.707H351.499C351.499 233.707 347.156 219.519 332.617 218.564Z" fill="#DCE6FF"/>
<path d="M0.2086 233.706C0.2086 233.706 -2.08654 244.225 8.54924 246.859C23.097 250.461 108.491 259.926 87.7454 267.118C76.0349 271.178 93.7236 276.691 150.763 278.721C207.802 280.75 305.677 272.797 272.763 261.028C239.85 249.259 374.309 258.186 366.141 233.706H0.2086Z" fill="#CFDDF9" fill-opacity="0.53"/>
<path d="M350.8 133.013L295.702 176.786L314.942 199.757L370.039 155.984L350.8 133.013Z" fill="#2FAC66"/>
<path d="M314.894 199.731L295.654 176.761L350.75 132.987L369.99 155.958L314.894 199.731ZM314.487 203.637L374 156.354L351.157 129.082L291.644 176.365L314.487 203.637Z" fill="#269E57"/>
<path d="M336.565 176.556C342.341 174.55 345.352 168.363 343.292 162.738C341.232 157.114 334.88 154.18 329.105 156.187C323.329 158.193 320.318 164.38 322.378 170.005C324.438 175.629 330.79 178.563 336.565 176.556Z" fill="#2FAC66"/>
<path d="M322.598 174.482C334.022 187.306 353.645 171.742 343.046 158.236C331.621 145.413 312 160.975 322.598 174.482ZM325.804 157.981C337.34 149.179 350.961 165.605 339.84 174.738C328.304 183.54 314.683 167.113 325.804 157.981Z" fill="#269E57"/>
<path d="M325.875 160.35L326.93 161.609C325.144 163.673 324.819 165.944 326.128 167.507C327.757 169.452 330.459 168.714 333.13 167.628C335.559 166.667 336.247 166.967 336.599 167.388C336.903 167.751 336.835 168.213 336.724 168.536C336.527 169.106 336.045 169.717 335.365 170.258C334.292 171.11 332.977 171.749 331.757 172.009C331.576 172.048 331.418 172.157 331.32 172.31C331.222 172.463 331.193 172.649 331.237 172.824L331.635 174.39C331.723 174.734 332.072 174.952 332.431 174.886C333.556 174.678 335.02 174.002 336.302 173.116L337.311 174.322C337.551 174.608 337.984 174.651 338.278 174.417L339.717 173.274C340.011 173.041 340.055 172.619 339.815 172.333L338.718 171.023C340.824 168.592 340.686 166.2 339.552 164.846C337.779 162.729 335.062 163.419 332.641 164.373C330.031 165.389 329.363 165.347 328.987 164.898C328.599 164.435 328.791 163.503 330.095 162.467C331.503 161.349 332.695 161.021 333.204 160.881C333.555 160.784 333.768 160.437 333.688 160.09L333.326 158.523C333.285 158.345 333.171 158.191 333.01 158.097C332.987 158.083 332.962 158.07 332.937 158.059C332.793 157.996 332.63 157.983 332.475 158.024C331.407 158.307 330.367 158.799 329.312 159.52L328.356 158.379C328.241 158.241 328.074 158.154 327.893 158.136C327.711 158.118 327.53 158.171 327.389 158.283L325.973 159.408C325.679 159.642 325.635 160.063 325.875 160.35Z" fill="#269E57"/>
<path d="M355.216 153.383C356.237 151.33 355.355 148.859 353.247 147.865C351.138 146.871 348.602 147.73 347.581 149.784C346.561 151.837 347.443 154.308 349.551 155.301C351.659 156.295 354.196 155.437 355.216 153.383Z" fill="#269E57"/>
<path d="M318.476 181.547C318.713 179.277 317.016 177.25 314.685 177.02C312.355 176.789 310.274 178.443 310.037 180.712C309.801 182.982 311.498 185.009 313.828 185.239C316.159 185.47 318.24 183.816 318.476 181.547Z" fill="#269E57"/>
<path d="M320.847 100.219L286.539 160.875L313.199 175.178L347.507 114.522L320.847 100.219Z" fill="#2FAC66"/>
<path d="M286.536 160.872L320.843 100.216L347.503 114.519L313.196 175.175L286.536 160.872ZM282.665 161.964L314.317 178.946L351.374 113.427L319.722 96.4454L282.665 161.964Z" fill="#269E57"/>
<path d="M320.341 148.034C326.192 146.249 329.45 140.182 327.617 134.483C325.785 128.785 319.555 125.612 313.704 127.397C307.853 129.182 304.595 135.249 306.428 140.947C308.26 146.646 314.49 149.819 320.341 148.034Z" fill="#2FAC66"/>
<path d="M309.166 145.342C299.055 135.2 314.311 120.143 324.874 130.05C334.984 140.192 319.728 155.248 309.166 145.342ZM307.687 146.783C320.33 158.448 338.327 140.898 326.352 128.608C313.705 116.944 295.714 134.493 307.687 146.783Z" fill="#269E57"/>
<path d="M308.881 132.183L307.999 133.741C307.816 134.065 307.937 134.473 308.27 134.651L309.731 135.434C308.867 137.999 309.437 140.224 311.251 141.197C313.508 142.408 315.731 140.74 317.792 138.761C319.676 136.985 320.429 137.013 320.918 137.275C321.339 137.502 321.452 137.954 321.473 138.294C321.51 138.894 321.297 139.637 320.874 140.386C320.205 141.567 319.231 142.638 318.199 143.324C318.046 143.426 317.942 143.584 317.91 143.762C317.878 143.94 317.921 144.123 318.03 144.269L319 145.576C319.213 145.862 319.622 145.939 319.928 145.747C320.892 145.144 321.991 143.985 322.84 142.697L324.238 143.447C324.571 143.625 324.989 143.507 325.172 143.184L326.068 141.6C326.156 141.445 326.176 141.261 326.126 141.091C326.075 140.92 325.957 140.776 325.797 140.691L324.277 139.875C325.116 137.392 324.559 135.484 323.461 134.416C323.223 134.184 322.96 133.992 322.681 133.842C320.223 132.524 317.968 134.153 316.089 135.919C314.058 137.811 313.422 138.016 312.901 137.736C312.662 137.607 312.505 137.353 312.459 137.018C312.408 136.655 312.46 136.024 312.996 135.078C313.872 133.529 314.852 132.79 315.271 132.475C315.56 132.257 315.623 131.858 315.416 131.565L314.479 130.244C314.373 130.094 314.208 129.992 314.022 129.963C313.837 129.934 313.648 129.98 313.498 130.091C312.616 130.742 311.84 131.577 311.138 132.63L309.813 131.919C309.654 131.834 309.466 131.813 309.291 131.863C309.116 131.912 308.969 132.027 308.881 132.183Z" fill="#269E57"/>
<path d="M330.637 113.619C332.688 114.72 333.435 117.232 332.305 119.23C331.175 121.229 328.596 121.956 326.544 120.855C324.492 119.755 323.745 117.243 324.876 115.244C326.005 113.246 328.585 112.519 330.637 113.619Z" fill="#269E57"/>
<path d="M306.513 162.149C308.784 161.589 310.158 159.342 309.583 157.13C309.007 154.918 306.7 153.58 304.429 154.141C302.158 154.701 300.784 156.948 301.36 159.16C301.935 161.371 304.242 162.71 306.513 162.149Z" fill="#269E57"/>
<path d="M270.259 106.314L270.707 175.564L301.144 175.377L300.696 106.127L270.259 106.314Z" fill="#2FAC66"/>
<path d="M270.7 175.566L270.251 106.318L300.687 106.131L301.136 175.379L270.7 175.566ZM267.868 178.36L304.004 178.138L303.519 103.337L267.383 103.56L267.868 178.36Z" fill="#269E57"/>
<path d="M290.417 150.612C295.964 148.068 298.343 141.626 295.731 136.223C293.119 130.82 286.505 128.503 280.958 131.047C275.41 133.591 273.031 140.033 275.643 145.436C278.255 150.838 284.869 153.156 290.417 150.612Z" fill="#2FAC66"/>
<path d="M285.423 151.658C270.856 151.08 271.358 129.936 285.965 130.039C300.532 130.618 300.03 151.761 285.423 151.658ZM285.372 153.695C302.823 153.596 303.431 128.925 286.014 128.002C268.564 128.103 267.957 152.771 285.372 153.695Z" fill="#269E57"/>
<path d="M275.839 141.684C275.84 141.861 275.914 142.031 276.043 142.156C276.173 142.281 276.347 142.35 276.531 142.349L278.199 142.339C278.721 144.94 280.284 146.598 282.302 146.645C282.339 146.646 282.376 146.646 282.413 146.646C284.991 146.63 286.095 144.118 286.902 141.411C287.657 138.965 288.329 138.632 288.886 138.628C289.368 138.622 289.693 138.967 289.881 139.253C290.214 139.76 290.401 140.51 290.406 141.364C290.415 142.713 290.101 144.111 289.544 145.2C289.461 145.362 289.45 145.549 289.511 145.72C289.572 145.89 289.702 146.029 289.87 146.105L291.371 146.785C291.702 146.935 292.096 146.807 292.267 146.493C292.806 145.509 293.185 143.974 293.28 142.447L294.877 142.437C295.256 142.434 295.562 142.133 295.56 141.763L295.548 139.955C295.545 139.585 295.23 139.286 294.856 139.29L293.121 139.301C292.51 136.237 290.573 134.836 288.806 134.795C288.772 134.794 288.738 134.794 288.705 134.794C285.899 134.811 284.747 137.305 283.992 139.74C283.167 142.356 282.714 142.837 282.12 142.841C281.857 142.846 281.582 142.695 281.374 142.424C281.148 142.131 280.878 141.556 280.871 140.476C280.859 138.706 281.345 137.596 281.552 137.122C281.695 136.795 281.55 136.416 281.223 136.259L279.743 135.551C279.575 135.47 279.38 135.46 279.204 135.523C279.028 135.586 278.885 135.716 278.81 135.883C278.367 136.872 278.108 137.969 278.023 139.221L276.51 139.231C276.131 139.233 275.825 139.535 275.828 139.904L275.839 141.684Z" fill="#269E57"/>
<path d="M288.125 120.78C289.991 119.4 290.356 116.809 288.94 114.992C287.524 113.174 284.863 112.819 282.997 114.199C281.131 115.578 280.766 118.169 282.183 119.987C283.599 121.804 286.259 122.159 288.125 120.78Z" fill="#269E57"/>
<path d="M286.665 168.256C288.965 167.826 290.472 165.66 290.03 163.42C289.588 161.179 287.365 159.712 285.065 160.142C282.764 160.572 281.258 162.738 281.699 164.978C282.141 167.219 284.364 168.686 286.665 168.256Z" fill="#269E57"/>
<path d="M327.398 169.637V238.406C327.398 245.439 321.544 251.141 314.322 251.141H263.013C255.791 251.141 249.937 245.439 249.937 238.406V169.637C249.937 162.407 255.954 156.547 263.377 156.547H313.958C321.381 156.547 327.398 162.407 327.398 169.637Z" fill="#8A9EDD"/>
<path d="M327.398 169.186V187.015H249.938V169.186C249.938 162.206 255.747 156.548 262.914 156.548H314.422C321.588 156.548 327.398 162.206 327.398 169.186Z" fill="#4867AA"/>
<path d="M311.707 180.438H265.727C260.846 180.438 256.889 176.584 256.889 171.829C256.889 167.075 260.846 163.221 265.727 163.221H311.707C316.589 163.221 320.546 167.075 320.546 171.829C320.546 176.584 316.589 180.438 311.707 180.438Z" fill="#8A9EDD"/>
<path d="M264.486 201.426H261.804C259.089 201.426 256.888 199.283 256.888 196.638C256.888 193.994 259.089 191.851 261.804 191.851H264.486C267.201 191.851 269.402 193.994 269.402 196.638C269.402 199.283 267.201 201.426 264.486 201.426Z" fill="#D4E8FF"/>
<path d="M264.486 215.612H261.804C259.089 215.612 256.888 213.468 256.888 210.824C256.888 208.18 259.089 206.036 261.804 206.036H264.486C267.201 206.036 269.402 208.18 269.402 210.824C269.402 213.468 267.201 215.612 264.486 215.612Z" fill="#D4E8FF"/>
<path d="M264.486 229.798H261.804C259.089 229.798 256.888 227.654 256.888 225.01C256.888 222.366 259.089 220.222 261.804 220.222H264.486C267.201 220.222 269.402 222.366 269.402 225.01C269.402 227.654 267.201 229.798 264.486 229.798Z" fill="#D4E8FF"/>
<path d="M264.486 243.983H261.804C259.089 243.983 256.888 241.84 256.888 239.196C256.888 236.551 259.089 234.408 261.804 234.408H264.486C267.201 234.408 269.402 236.551 269.402 239.196C269.402 241.84 267.201 243.983 264.486 243.983Z" fill="#D4E8FF"/>
<path d="M281.534 201.426H278.853C276.138 201.426 273.937 199.283 273.937 196.638C273.937 193.994 276.138 191.851 278.853 191.851H281.534C284.249 191.851 286.45 193.994 286.45 196.638C286.45 199.283 284.249 201.426 281.534 201.426Z" fill="#D4E8FF"/>
<path d="M281.534 215.612H278.853C276.138 215.612 273.937 213.468 273.937 210.824C273.937 208.18 276.138 206.036 278.853 206.036H281.534C284.249 206.036 286.45 208.18 286.45 210.824C286.45 213.468 284.249 215.612 281.534 215.612Z" fill="#D4E8FF"/>
<path d="M281.534 229.798H278.853C276.138 229.798 273.937 227.654 273.937 225.01C273.937 222.366 276.138 220.222 278.853 220.222H281.534C284.249 220.222 286.45 222.366 286.45 225.01C286.45 227.654 284.249 229.798 281.534 229.798Z" fill="#D4E8FF"/>
<path d="M281.534 243.983H278.853C276.138 243.983 273.937 241.84 273.937 239.196C273.937 236.551 276.138 234.408 278.853 234.408H281.534C284.249 234.408 286.45 236.551 286.45 239.196C286.45 241.84 284.249 243.983 281.534 243.983Z" fill="#D4E8FF"/>
<path d="M298.582 201.426H295.901C293.186 201.426 290.985 199.283 290.985 196.638C290.985 193.994 293.186 191.851 295.901 191.851H298.582C301.297 191.851 303.498 193.994 303.498 196.638C303.498 199.283 301.297 201.426 298.582 201.426Z" fill="#D4E8FF"/>
<path d="M298.582 215.612H295.901C293.186 215.612 290.985 213.468 290.985 210.824C290.985 208.18 293.186 206.036 295.901 206.036H298.582C301.297 206.036 303.498 208.18 303.498 210.824C303.498 213.468 301.297 215.612 298.582 215.612Z" fill="#D4E8FF"/>
<path d="M298.582 229.798H295.901C293.186 229.798 290.985 227.654 290.985 225.01C290.985 222.366 293.186 220.222 295.901 220.222H298.582C301.297 220.222 303.498 222.366 303.498 225.01C303.498 227.654 301.297 229.798 298.582 229.798Z" fill="#D4E8FF"/>
<path d="M298.582 243.983H295.901C293.186 243.983 290.985 241.84 290.985 239.196C290.985 236.551 293.186 234.408 295.901 234.408H298.582C301.297 234.408 303.498 236.551 303.498 239.196C303.498 241.84 301.297 243.983 298.582 243.983Z" fill="#D4E8FF"/>
<path d="M315.63 201.426H312.949C310.234 201.426 308.033 199.283 308.033 196.638C308.033 193.994 310.234 191.851 312.949 191.851H315.63C318.345 191.851 320.546 193.994 320.546 196.638C320.546 199.283 318.345 201.426 315.63 201.426Z" fill="#EB5648"/>
<path d="M315.63 215.612H312.949C310.234 215.612 308.033 213.468 308.033 210.824C308.033 208.18 310.234 206.036 312.949 206.036H315.63C318.345 206.036 320.546 208.18 320.546 210.824C320.546 213.468 318.345 215.612 315.63 215.612Z" fill="#4867AA"/>
<path d="M315.63 229.798H312.949C310.234 229.798 308.033 227.654 308.033 225.01C308.033 222.366 310.234 220.222 312.949 220.222H315.63C318.345 220.222 320.546 222.366 320.546 225.01C320.546 227.654 318.345 229.798 315.63 229.798Z" fill="#4867AA"/>
<path d="M315.63 243.983H312.949C310.234 243.983 308.033 241.84 308.033 239.196C308.033 236.551 310.234 234.408 312.949 234.408H315.63C318.345 234.408 320.546 236.551 320.546 239.196C320.546 241.84 318.345 243.983 315.63 243.983Z" fill="#4867AA"/>
<path d="M323.671 26.8988L288.45 72.843L279.979 53.6384L176.619 96.882L161.881 63.4731L66.5665 103.352L60.268 89.0719L170.244 43.059L184.981 76.4698L273.681 39.3586L265.211 20.1568L323.671 26.8988Z" fill="#C41FA9"/>
<path d="M323.671 26.8988L288.45 72.8429L279.979 53.6383L176.619 96.8819L161.881 63.473L66.5665 103.352L63.3256 96.0038L165.403 53.2936L179.945 86.2659L323.671 26.8988Z" fill="#941780"/>
<path d="M214.94 151.008L235.55 157.652L218.457 207.955C216.307 214.282 212.945 220.015 208.464 224.993C204.14 229.798 198.966 233.693 193.084 236.574C187.202 239.453 180.904 241.173 174.365 241.688C167.589 242.22 160.861 241.428 154.364 239.334L154.334 239.325L161.175 219.195L161.204 219.204C176.36 224.089 192.772 216.055 197.789 201.293L214.94 151.008Z" fill="#1D3F70"/>
<path d="M161.175 219.195L154.334 239.325C147.849 237.231 141.974 233.96 136.87 229.602C131.937 225.391 127.937 220.351 124.979 214.622C122.023 208.893 120.255 202.76 119.728 196.391C119.182 189.792 119.994 183.239 122.144 176.912L139.238 126.608L159.907 133.271L142.814 183.574C137.801 198.327 146.037 214.298 161.175 219.195Z" fill="#EB5648"/>
<path d="M167.993 109.474L159.907 133.27L139.238 126.607L147.323 102.812L167.993 109.474Z" fill="white"/>
<path d="M243.637 133.855L235.55 157.652L214.94 151.008L223.025 127.213L240.081 132.709L243.637 133.855Z" fill="white"/>
<path d="M32.8565 165.657C40.0504 165.657 45.8822 159.977 45.8822 152.971C45.8822 145.965 40.0504 140.285 32.8565 140.285C25.6627 140.285 19.8309 145.965 19.8309 152.971C19.8309 159.977 25.6627 165.657 32.8565 165.657Z" fill="#F9B233"/>
<path d="M38.8039 141.681C43.9261 144.236 46.8598 149.905 45.5897 155.644C44.0742 162.493 37.1446 166.849 30.1122 165.373C28.9727 165.133 27.8993 164.755 26.9089 164.261C21.7869 161.706 18.8532 156.038 20.1231 150.298C21.6388 143.449 28.5682 139.094 35.6006 140.57C36.7403 140.809 37.8135 141.187 38.8039 141.681ZM39.7641 139.858L39.7638 139.858C38.5917 139.273 37.3404 138.839 36.0439 138.567C32.0934 137.737 28.0476 138.456 24.6522 140.591C21.2567 142.725 18.9179 146.019 18.0665 149.867C16.6252 156.381 19.8667 163.05 25.9497 166.085C27.1208 166.669 28.3721 167.103 29.669 167.375C37.8242 169.087 45.8888 164.018 47.6463 156.075C49.0878 149.561 45.8464 142.893 39.7641 139.858Z" fill="#F39200"/>
<path d="M39.2104 157.87C39.9038 154.736 37.264 152.817 34.593 151.354C31.7256 149.769 31.2755 149.142 31.4224 148.478C31.4898 148.173 31.7315 147.915 32.1027 147.751C32.5042 147.574 33.2494 147.419 34.5213 147.685C36.6051 148.123 37.7874 148.947 38.292 149.299C38.6407 149.541 39.123 149.477 39.3909 149.151L40.6002 147.681C40.7378 147.514 40.7992 147.299 40.7704 147.086C40.7412 146.874 40.6243 146.682 40.4465 146.556C39.3974 145.81 38.1731 145.241 36.7214 144.828L37.0953 143.139C37.1402 142.935 37.1004 142.722 36.9845 142.547C36.8684 142.372 36.6858 142.249 36.4768 142.205L34.3816 141.766C33.9463 141.674 33.5171 141.944 33.4232 142.368L33.0109 144.231C29.7605 144.15 27.3852 145.523 26.8732 147.836C26.2363 150.715 28.9101 152.586 31.8881 154.175C34.572 155.639 34.7929 156.473 34.6552 157.096C34.5362 157.634 34.052 157.91 33.6668 158.048C32.9862 158.29 32.0573 158.307 31.0506 158.096C29.4627 157.763 27.8987 157.056 26.7592 156.159C26.5896 156.025 26.3726 155.964 26.1567 155.989C25.9405 156.014 25.7439 156.123 25.6116 156.292L24.4306 157.794C24.1704 158.125 24.2211 158.596 24.546 158.868C25.5658 159.719 27.2742 160.532 29.0469 161.026L28.6521 162.81C28.5737 163.165 28.7553 163.517 29.0722 163.675C29.1336 163.705 29.2001 163.729 29.2706 163.743L31.3996 164.19C31.6086 164.234 31.827 164.196 32.0069 164.082C32.1866 163.97 32.3129 163.792 32.358 163.588L32.7869 161.649C36.6168 161.749 38.7667 159.874 39.2104 157.87Z" fill="#F39200"/>
<path d="M102.688 135.053C107.774 130.099 107.774 122.066 102.688 117.112C97.6009 112.158 89.3536 112.158 84.2669 117.112C79.1801 122.066 79.1801 130.099 84.2669 135.053C89.3536 140.007 97.6009 140.007 102.688 135.053Z" fill="#F9B233"/>
<path d="M92.5308 113.427C98.2701 113.015 103.803 116.371 105.782 121.916C108.145 128.534 104.552 135.764 97.7571 138.065C96.656 138.438 95.5375 138.659 94.4275 138.738C88.6881 139.15 83.1557 135.795 81.1759 130.249C78.8133 123.631 82.4063 116.401 89.2012 114.1C90.3023 113.727 91.4209 113.507 92.5308 113.427ZM92.3772 111.384H92.3769C91.0636 111.478 89.7629 111.741 88.5102 112.165C84.6932 113.458 81.6214 116.121 79.8608 119.664C78.1003 123.206 77.8616 127.205 79.1888 130.922C81.4358 137.216 87.7657 141.271 94.582 140.782C95.8942 140.688 97.1949 140.425 98.4479 140.001C106.328 137.332 110.509 128.918 107.769 121.244C105.522 114.95 99.1928 110.895 92.3772 111.384Z" fill="#F39200"/>
<path d="M101.522 127.049C100.441 124.021 97.1613 123.719 94.0991 123.823C90.8033 123.921 90.0841 123.613 89.855 122.971C89.7499 122.677 89.8186 122.334 90.0481 122.006C90.2963 121.652 90.8501 121.141 92.0787 120.725C94.0921 120.043 95.5422 120.149 96.1608 120.193C96.5883 120.224 96.9657 119.925 97.0205 119.511L97.2686 117.643C97.2969 117.43 97.2345 117.215 97.0963 117.049C96.9579 116.882 96.7556 116.777 96.5363 116.759C95.242 116.654 93.8928 116.788 92.4322 117.17L91.8494 115.538C91.7789 115.341 91.6315 115.18 91.4389 115.089C91.2463 114.998 91.0248 114.986 90.8226 115.054L88.7982 115.74C88.3776 115.882 88.155 116.33 88.3012 116.739L88.9441 118.54C86.1242 120.117 84.8285 122.492 85.6265 124.728C86.6196 127.509 89.9025 127.753 93.2947 127.602C96.3689 127.493 97.003 128.094 97.2179 128.696C97.4032 129.215 97.1373 129.696 96.8817 130.009C96.4298 130.561 95.6455 131.046 94.673 131.375C93.1387 131.895 91.4258 132.084 89.9731 131.894C89.7569 131.866 89.5391 131.924 89.368 132.054C89.1968 132.185 89.0871 132.378 89.064 132.589L88.8574 134.47C88.8119 134.884 89.1069 135.261 89.5292 135.329C90.8551 135.54 92.748 135.368 94.5263 134.893L95.1415 136.616C95.2641 136.96 95.6068 137.168 95.962 137.142C96.0307 137.137 96.0999 137.124 96.1682 137.1L98.2253 136.404C98.4273 136.335 98.5933 136.192 98.6864 136.004C98.7795 135.817 98.7924 135.601 98.7223 135.404L98.0534 133.531C101.378 131.676 102.213 128.985 101.522 127.049Z" fill="#F39200"/>
<path d="M188.843 165.018C193.188 163.156 197.603 161.233 201.553 158.671C202.805 157.903 203.891 157.07 204.291 155.553C205.2 152.598 204.858 149.071 204.396 145.961C204.332 144.793 203.28 142.849 205.013 142.439C206.073 142.232 206.493 143.303 206.897 144.025C207.439 145.028 207.914 146.052 208.344 147.11C212.951 158.937 208.408 163.499 198.16 169.332C196.118 170.449 194.024 171.48 191.841 172.314C186.911 174.097 184.011 167.037 188.843 165.018Z" fill="#F99370"/>
<path d="M201.18 139.064C201.18 139.064 205.543 138.277 206.426 143.241L204.046 144.659L201.18 139.064Z" fill="#F99370"/>
<path d="M196.806 174.271C196.38 174.47 195.954 174.65 195.531 174.811L193.034 171.591L188.14 165.28C190.331 163.562 201.9 159.348 203.411 155.963C204.248 154.49 204.835 149 204.352 145.596C204.371 145.596 205.752 145.591 206.918 144.064C208.349 146.557 209.853 149.53 210.796 154.349C212.679 160.976 204.54 170.672 196.806 174.271Z" fill="#E8C0A6"/>
<path d="M207.598 145.284C206.219 146.87 204.469 146.715 204.469 146.715C204.438 146.336 204.4 145.95 204.352 145.595C204.352 145.595 205.744 145.6 206.918 144.064C206.918 144.064 207.188 144.502 207.598 145.284Z" fill="#D1A68F"/>
<path d="M197.214 174.075C196.788 174.274 195.954 174.65 195.531 174.81L193.034 171.591L193.342 169.338C193.342 169.338 195.732 170.872 197.214 174.075Z" fill="#D1A68F"/>
<path d="M177.436 135.879C177.436 135.879 173.308 137.164 173.533 141.438L176.826 142.103L177.436 135.879Z" fill="#F99370"/>
<path d="M202.953 257.232L192.607 258.011C191.701 258.043 191.637 257.147 191.748 256.439C192.119 253.892 190.655 248.217 190.264 245.655C190.177 245.187 190.525 244.748 191.013 244.712L195.579 244.368C196.074 244.331 196.49 244.724 196.466 245.206L196.147 251.71C196.036 254.682 199.283 254.743 201.373 254.979C202.207 255.118 203.087 255.363 203.533 255.928C203.948 256.432 203.615 257.182 202.953 257.232Z" fill="#F99370"/>
<path d="M191.4 257.051C191.467 257.543 191.764 258.086 192.35 258.03L203.082 257.222C203.637 257.181 203.987 256.611 203.75 256.122C203.243 255.013 201.686 253.296 196.593 253.4C195.87 253.523 194.138 253.998 191.709 253.861C191.709 253.861 191.018 255.207 191.4 257.051Z" fill="#1D3F70"/>
<path d="M200.412 256.002C200.383 256.004 200.354 256.001 200.324 255.992C200.204 255.955 200.138 255.83 200.176 255.713C200.572 254.501 201.458 254.071 201.495 254.053C201.609 254 201.746 254.046 201.801 254.156C201.856 254.266 201.809 254.399 201.696 254.453C201.665 254.468 200.946 254.827 200.612 255.848C200.583 255.936 200.502 255.995 200.412 256.002Z" fill="#E8C0A6"/>
<path d="M198.623 255.927C198.601 255.929 198.578 255.927 198.555 255.922C198.432 255.895 198.355 255.776 198.382 255.656C198.698 254.303 199.808 253.618 199.855 253.59C199.963 253.525 200.103 253.557 200.169 253.661C200.236 253.765 200.204 253.902 200.097 253.968C200.087 253.974 199.101 254.588 198.829 255.755C198.806 255.852 198.72 255.92 198.623 255.927Z" fill="#E8C0A6"/>
<path d="M196.587 255.838C196.562 255.84 196.537 255.838 196.511 255.831C196.389 255.8 196.316 255.678 196.348 255.559C196.72 254.187 197.739 253.403 197.782 253.37C197.881 253.294 198.025 253.311 198.103 253.408C198.18 253.505 198.163 253.645 198.064 253.721C198.054 253.728 197.122 254.45 196.791 255.673C196.765 255.767 196.682 255.831 196.587 255.838Z" fill="#E8C0A6"/>
<path d="M203.75 256.122L191.4 257.051C191.475 257.414 191.607 257.763 191.822 258.07L203.082 257.222C203.629 257.181 203.98 256.627 203.758 256.139C203.756 256.133 203.753 256.127 203.75 256.122Z" fill="#10325B"/>
<path d="M198.675 249.037C198.255 250.369 197.985 251.141 197.985 251.141C197.985 251.141 193.506 252.927 189.36 251.338C189.36 251.338 189.38 251.046 189.416 250.517C189.419 250.454 189.425 250.389 189.429 250.32C189.443 250.112 189.458 249.874 189.475 249.608C189.838 243.955 190.585 227.311 190.251 223.125C189.823 217.747 187.671 213.188 185.338 209.986C184.528 208.876 183.697 207.93 182.908 207.168C178.275 202.693 173.398 202.86 175.112 195.012C175.365 193.857 185.836 194.364 185.836 194.364L197.652 196.219C197.652 196.219 202.86 208.602 203.826 220.293C204.598 229.645 200.286 243.932 198.675 249.037Z" fill="#CE4ABF"/>
<path d="M191.17 250.517H189.416C189.419 250.454 189.424 250.389 189.429 250.32C189.443 250.112 189.458 249.874 189.475 249.609C189.838 243.955 190.585 227.311 190.251 223.125C189.822 217.747 187.671 213.188 185.338 209.986L185.603 206.895C185.603 206.895 190.13 213.145 191.289 218.839C192.448 224.534 191.17 250.517 191.17 250.517Z" fill="#A523A2"/>
<path d="M198.676 249.037C198.255 250.368 197.985 251.141 197.985 251.141C197.985 251.141 193.506 252.927 189.36 251.338C189.36 251.338 189.404 250.699 189.474 249.609L189.476 249.608C189.476 249.608 194.28 250.972 198.676 249.037Z" fill="#A523A2"/>
<path d="M147.117 245.135L142.753 235.965C142.554 235.546 142.757 235.053 143.196 234.88C145.521 234.374 148.748 232.497 150.8 231.299C150.8 231.299 154.013 235.455 153.541 235.602L148.503 238.148C147.66 239.194 147.824 238.809 148.101 240.209C148.377 242.001 149.336 243.652 148.574 245.208C148.234 245.763 147.396 245.721 147.117 245.135Z" fill="#F99370"/>
<path d="M143.254 234.528C142.805 234.761 142.385 235.222 142.644 235.737L147.171 245.249C147.404 245.741 148.075 245.861 148.463 245.474C149.353 244.624 150.442 242.729 148.564 238.118C148.192 237.501 147.098 235.966 146.38 233.702C146.38 233.702 144.895 233.535 143.254 234.528Z" fill="#1D3F70"/>
<path d="M147.412 242.385C147.4 242.36 147.392 242.332 147.391 242.303C147.385 242.18 147.482 242.076 147.608 242.069C148.912 242.008 149.635 242.665 149.665 242.694C149.756 242.779 149.76 242.919 149.673 243.008C149.587 243.097 149.443 243.101 149.351 243.017C149.326 242.994 148.729 242.463 147.63 242.515C147.535 242.519 147.45 242.465 147.412 242.385Z" fill="#E8C0A6"/>
<path d="M146.859 240.727C146.85 240.707 146.843 240.686 146.84 240.663C146.823 240.541 146.911 240.429 147.036 240.413C148.448 240.228 149.494 241.002 149.538 241.035C149.639 241.11 149.656 241.25 149.579 241.347C149.503 241.444 149.359 241.462 149.259 241.387C149.25 241.38 148.315 240.695 147.097 240.854C146.995 240.867 146.9 240.813 146.859 240.727Z" fill="#E8C0A6"/>
<path d="M146.234 238.838C146.223 238.816 146.216 238.792 146.214 238.767C146.201 238.644 146.293 238.535 146.418 238.523C147.869 238.383 148.979 239.039 149.026 239.067C149.133 239.131 149.166 239.268 149.101 239.372C149.035 239.477 148.894 239.51 148.786 239.446C148.776 239.44 147.756 238.841 146.464 238.966C146.364 238.976 146.274 238.922 146.234 238.838Z" fill="#E8C0A6"/>
<path d="M196.162 250.569L195.611 250.464C195.655 250.246 199.985 228.535 199.477 219.127C198.97 209.738 192.998 196.735 192.938 196.605L193.45 196.38C193.511 196.511 199.525 209.606 200.038 219.099C200.55 228.574 196.206 250.35 196.162 250.569Z" fill="#A523A2"/>
<path d="M148.463 245.474L143.254 234.529C143.046 234.654 142.852 234.799 142.682 234.967C142.516 235.131 142.473 235.378 142.572 235.586L147.171 245.249C147.402 245.734 148.057 245.86 148.449 245.488C148.454 245.483 148.459 245.479 148.463 245.474Z" fill="#10325B"/>
<path d="M189.646 196.925C186.307 209.243 183.656 218.834 174.031 228.313C167.691 234.556 157.809 237.465 153.588 238.092C152.166 238.302 151.308 238.358 151.308 238.358C151.308 238.358 147.035 234.845 148.564 229.603C148.564 229.603 149.282 229.407 150.412 229.046C153.937 227.921 161.231 225.03 163.722 221.865C171.52 211.959 167.907 203.575 171.844 194.913L189.646 196.925Z" fill="#CE4ABF"/>
<path d="M153.588 238.092C152.166 238.302 151.308 238.358 151.308 238.358C151.308 238.358 147.035 234.845 148.564 229.603C148.564 229.603 149.282 229.407 150.412 229.046C150.412 229.046 149.839 234.756 153.588 238.092Z" fill="#A523A2"/>
<path d="M187.274 165.59C187.534 163.385 187.178 160.197 186.863 158.894C186.293 156.312 182.084 157.311 182.783 159.849C182.919 159.766 183.353 164.445 183.053 165.743C179.104 166.896 190.983 170.686 187.274 165.59Z" fill="#F99370"/>
<path d="M182.743 159.636C182.748 159.666 182.751 159.697 182.757 159.727C182.765 159.768 182.773 159.809 182.783 159.849C182.881 159.786 183.155 162.368 183.157 164.241C184.967 165.041 186.979 164.677 187.349 164.604C187.429 162.623 187.118 160.18 186.953 159.262C186.904 159.046 186.869 158.92 186.862 158.894C186.848 158.836 186.831 158.779 186.811 158.723C186.609 158.135 186.152 157.689 185.592 157.474C185.591 157.474 185.591 157.474 185.591 157.474C185.202 157.325 184.765 157.288 184.329 157.391C183.897 157.493 183.529 157.718 183.255 158.019C183.243 158.031 183.232 158.044 183.221 158.056C182.852 158.483 182.663 159.052 182.743 159.636Z" fill="#E57D61"/>
<path d="M189.875 154.862C189.875 154.862 189.474 152.691 188.525 151.3L187.348 152.112L189.875 154.862Z" fill="#8E4A35"/>
<path d="M190.975 161.228C189.706 162.972 187.431 163.771 185.49 163.674C184.886 163.653 184.295 163.541 183.749 163.319L183.749 163.319C183.564 163.244 183.387 163.158 183.215 163.06L183.212 163.061C174.908 157.192 182.691 144.204 188.781 153.5C190.746 156.078 193.601 157.175 190.975 161.228Z" fill="#F99370"/>
<path d="M186.517 204.222C186.508 204.222 186.502 204.222 186.498 204.222C186.42 204.219 186.347 204.184 186.297 204.127C186.246 204.069 186.223 203.994 186.231 203.919L186.661 200.148C186.679 199.998 186.818 199.891 186.971 199.907C187.125 199.924 187.237 200.059 187.219 200.209L186.834 203.583C186.946 203.527 187.078 203.438 187.218 203.295C187.801 202.699 188.457 201.243 188.276 197.688C188.268 197.537 188.387 197.409 188.542 197.401C188.696 197.393 188.829 197.51 188.837 197.661C189.031 201.459 188.265 203.046 187.589 203.708C187.095 204.191 186.628 204.222 186.517 204.222Z" fill="#A523A2"/>
<path d="M186.954 156.042C187.003 155.893 186.919 155.734 186.766 155.687C186.614 155.639 186.451 155.721 186.402 155.87C186.353 156.018 186.437 156.177 186.589 156.225C186.742 156.272 186.905 156.19 186.954 156.042Z" fill="#C16256"/>
<path d="M150.973 236.052L150.849 235.519C150.982 235.49 164.23 232.529 171.422 226.364C178.863 219.988 181.283 206.381 183.05 196.445L183.604 196.539C181.822 206.554 179.383 220.271 171.793 226.775C164.492 233.032 151.107 236.023 150.973 236.052Z" fill="#A523A2"/>
<path d="M189.296 155.269C189.345 155.12 189.261 154.961 189.108 154.914C188.956 154.866 188.792 154.948 188.744 155.097C188.695 155.245 188.779 155.404 188.931 155.452C189.084 155.499 189.247 155.417 189.296 155.269Z" fill="#C16256"/>
<path d="M188.951 157.798C188.787 157.844 188.614 157.862 188.462 157.84C188.402 157.831 188.361 157.777 188.37 157.718C188.379 157.66 188.436 157.62 188.495 157.629C188.877 157.684 189.362 157.427 189.406 157.255C189.421 157.195 189.334 157.152 189.258 157.126C188.59 156.899 187.99 155.833 187.965 155.788C187.936 155.736 187.956 155.671 188.009 155.643C188.065 155.614 188.129 155.635 188.158 155.686C188.164 155.696 188.743 156.725 189.33 156.924C189.651 157.033 189.639 157.228 189.619 157.307C189.566 157.512 189.274 157.708 188.951 157.798Z" fill="#C16256"/>
<path d="M188.335 152.861C186.65 152.31 183.956 153.481 182.572 153.69C182.572 153.69 183.25 155.945 181.138 157.962C181.289 160.11 181.086 161.091 183.749 163.319L183.749 163.319C183.564 163.244 183.387 163.158 183.215 163.06L183.212 163.06C175.226 157.476 182.277 144.669 188.335 152.861Z" fill="#E57D61"/>
<path d="M188.743 148.089C187.567 146.52 184.769 146.008 182.84 148.484C181.356 150.39 179.456 150.678 179.781 152.387C176.517 154.503 178.897 158.006 178.897 158.006L180.629 157.523C182.382 155.613 181.93 153.285 181.93 153.285L181.93 153.285C182.384 153.235 182.854 153.142 183.256 152.971C184.502 152.442 186.4 151.981 187.954 152.274C189.507 152.568 190.058 149.843 188.743 148.089Z" fill="#8E4A35"/>
<path d="M178.877 159.432C179.215 160.285 180.062 160.762 180.767 160.496C181.473 160.231 181.771 159.325 181.432 158.471C181.094 157.618 180.247 157.142 179.542 157.407C178.836 157.673 178.539 158.579 178.877 159.432Z" fill="#F99370"/>
<path d="M180.416 157.988C180.386 157.982 179.674 157.836 179.354 158.235C179.272 158.336 179.228 158.463 179.216 158.612C179.216 158.612 179.216 158.612 179.216 158.613C179.215 158.627 179.212 158.639 179.211 158.654C179.211 158.654 179.211 158.654 179.211 158.654V158.654C179.201 158.929 179.302 159.278 179.514 159.699C179.538 159.746 179.593 159.768 179.643 159.754C179.649 159.753 179.655 159.75 179.661 159.747C179.716 159.722 179.738 159.657 179.712 159.604C179.539 159.263 179.448 158.978 179.434 158.754C180.076 158.764 180.503 159.395 180.507 159.402C180.534 159.443 180.585 159.46 180.63 159.448C180.64 159.445 180.649 159.441 180.659 159.435C180.71 159.404 180.725 159.338 180.693 159.288C180.672 159.256 180.205 158.549 179.45 158.533C179.466 158.47 179.49 158.413 179.527 158.367C179.762 158.073 180.364 158.195 180.369 158.196C180.429 158.209 180.487 158.172 180.5 158.114C180.512 158.057 180.475 158 180.416 157.988Z" fill="#C16256"/>
<path d="M181.707 159.582L180.714 158.978C180.709 158.935 180.7 158.892 180.683 158.851C180.58 158.605 180.293 158.487 180.04 158.587C179.788 158.687 179.666 158.967 179.769 159.212C179.868 159.451 180.143 159.567 180.39 159.482L181.382 160.086C181.459 160.132 181.548 160.142 181.628 160.119C181.699 160.1 181.762 160.056 181.803 159.991C181.893 159.852 181.85 159.669 181.707 159.582Z" fill="#FDFFDE"/>
<path d="M197.843 194.445C197.801 195.096 197.738 195.693 197.652 196.22C197.652 196.22 183.987 200.406 171.843 194.913C171.247 192.189 171.787 190.206 173.228 184.735C174.132 181.661 173.672 177.283 173.918 175.765C175.302 168.371 180.624 166.362 183.071 165.59C184.325 168.705 188.008 167.864 187.276 165.592C187.605 165.674 188.139 165.28 188.139 165.28C197.737 168.632 197.932 184.797 197.843 194.445Z" fill="#E8C0A6"/>
<path d="M185.603 155.809C185.583 155.809 185.563 155.805 185.544 155.796C185.474 155.764 185.444 155.683 185.477 155.615C185.494 155.579 185.91 154.743 186.843 154.576C186.92 154.562 186.992 154.611 187.006 154.685C187.02 154.759 186.97 154.829 186.894 154.843C186.1 154.985 185.733 155.724 185.729 155.731C185.705 155.78 185.655 155.809 185.603 155.809Z" fill="#C16256"/>
<path d="M189.31 154.551C189.29 154.551 189.271 154.547 189.252 154.539C188.616 154.26 188.124 154.522 188.103 154.533C188.036 154.57 187.951 154.547 187.913 154.482C187.875 154.416 187.898 154.334 187.965 154.296C187.99 154.282 188.597 153.953 189.367 154.291C189.437 154.321 189.469 154.402 189.437 154.471C189.414 154.521 189.363 154.551 189.31 154.551Z" fill="#C16256"/>
<path d="M176.771 173.801C171.52 169.631 165.956 164.058 165.857 157.018C166.368 151.25 169.007 146.203 172.882 141.918C173.013 141.825 173.684 141.094 173.815 140.997C174.683 139.788 176.649 140.693 176.106 142.1C174.094 146.586 172.409 151.433 172.624 156.379C173.077 160.688 178.397 164.772 181.65 167.542C185.798 170.739 181.047 176.834 176.771 173.801Z" fill="#F99370"/>
<path d="M175.557 199.54C175.536 199.54 175.514 199.538 175.493 199.533C172.015 198.745 172.097 196.569 172.103 196.477C172.107 196.391 172.154 196.312 172.228 196.264C172.301 196.217 172.394 196.206 172.478 196.235C175.78 197.386 179.166 197.986 179.2 197.992C179.352 198.019 179.454 198.161 179.426 198.309C179.399 198.458 179.252 198.556 179.101 198.53C179.068 198.524 175.924 197.968 172.719 196.897C172.875 197.467 173.458 198.51 175.62 199C175.771 199.034 175.865 199.181 175.83 199.328C175.8 199.454 175.684 199.54 175.557 199.54Z" fill="#A523A2"/>
<path d="M182.725 174.574C178.331 177.996 172.141 173.904 168.94 168.787C161.968 159.719 165.428 147.492 172.882 141.918C172.882 141.918 173.88 143.216 175.6 143.254C174.757 146.193 173.062 152.463 173.525 156.74C174.125 161.392 180.518 163.205 182.482 165.762C184.447 168.319 184.616 173.01 182.725 174.574Z" fill="#E8C0A6"/>
<path d="M188.588 158.886C187.79 158.886 187.319 158.482 187.292 158.458C187.246 158.417 187.242 158.348 187.284 158.303C187.325 158.258 187.396 158.255 187.442 158.295C187.476 158.325 188.276 159.003 189.582 158.451C189.638 158.427 189.705 158.452 189.73 158.508C189.755 158.563 189.729 158.628 189.672 158.652C189.265 158.824 188.901 158.886 188.588 158.886Z" fill="#C16256"/>
<path d="M175.15 172.549C175.15 172.549 174.466 173.423 174.244 174.363C172.78 173.425 170.694 171.533 168.94 168.787C168.94 168.787 171.932 171.48 175.15 172.549Z" fill="#D1A68F"/>
<path d="M185.977 168.503C183.005 168.549 182.482 165.762 182.482 165.762C182.852 165.639 183.071 165.59 183.071 165.59C183.987 167.688 185.647 167.853 186.549 167.435C187.63 166.936 187.309 165.722 187.276 165.592C187.276 165.592 187.761 165.286 188.139 165.28C188.478 166.559 188.141 168.469 185.977 168.503Z" fill="#D1A68F"/>
<path d="M175.6 143.254C175.6 143.254 175.498 143.61 175.332 144.204C173.255 144.461 171.84 142.763 171.84 142.763C172.427 142.211 172.882 141.918 172.882 141.918C172.882 141.918 173.88 143.216 175.6 143.254Z" fill="#D1A68F"/>
<path d="M197.843 194.445C197.801 195.096 197.738 195.693 197.652 196.22C197.652 196.22 183.987 200.406 171.843 194.914C171.843 194.914 171.61 194.526 171.608 193.276C171.608 193.276 177.606 195.617 184.761 196.077C188.97 196.346 194.227 195.329 197.843 194.445Z" fill="#D1A68F"/>
<path d="M203.916 138.398C210.618 131.871 210.618 121.288 203.916 114.76C197.214 108.233 186.347 108.233 179.645 114.76C172.943 121.288 172.943 131.871 179.645 138.398C186.347 144.926 197.214 144.926 203.916 138.398Z" fill="#F9B233"/>
<path d="M191.794 109.86C199.376 109.859 206.312 114.79 208.363 122.263C210.81 131.182 205.371 140.344 196.214 142.727C194.73 143.113 193.238 143.298 191.772 143.298C184.19 143.298 177.253 138.368 175.203 130.894C172.755 121.976 178.195 112.814 187.352 110.431C188.836 110.044 190.327 109.86 191.794 109.86ZM191.795 107.16H191.795C190.06 107.16 188.324 107.383 186.636 107.823C181.492 109.161 177.191 112.371 174.526 116.861C171.861 121.35 171.15 126.581 172.525 131.591C174.852 140.074 182.767 145.998 191.772 145.998C193.506 145.998 195.241 145.775 196.93 145.335C207.549 142.571 213.879 131.908 211.041 121.566C208.713 113.084 200.799 107.16 191.795 107.16Z" fill="#F39200"/>
<path d="M202.255 128.606C201.135 124.526 196.856 123.819 192.822 123.667C188.481 123.485 187.567 123.013 187.33 122.149C187.221 121.752 187.345 121.308 187.679 120.899C188.041 120.456 188.819 119.838 190.475 119.407C193.188 118.7 195.083 118.975 195.892 119.092C196.45 119.173 196.976 118.815 197.089 118.277L197.601 115.845C197.659 115.569 197.599 115.281 197.433 115.048C197.268 114.816 197.013 114.66 196.726 114.616C195.036 114.355 193.25 114.405 191.292 114.769L190.689 112.569C190.616 112.304 190.438 112.078 190.194 111.94C189.95 111.803 189.66 111.766 189.388 111.837L186.66 112.547C186.093 112.694 185.756 113.262 185.907 113.814L186.573 116.24C182.712 118.046 180.773 121.046 181.599 124.058C182.628 127.807 186.918 128.436 191.39 128.558C195.44 128.705 196.214 129.553 196.437 130.365C196.629 131.064 196.231 131.672 195.864 132.058C195.216 132.741 194.137 133.304 192.826 133.646C190.759 134.184 188.489 134.27 186.599 133.884C186.318 133.827 186.026 133.883 185.788 134.038C185.55 134.194 185.387 134.437 185.335 134.712L184.877 137.164C184.776 137.705 185.126 138.228 185.675 138.356C187.396 138.758 189.9 138.711 192.284 138.254L192.921 140.577C193.048 141.04 193.478 141.345 193.947 141.345C194.038 141.345 194.13 141.333 194.222 141.31L196.994 140.588C197.267 140.517 197.499 140.344 197.64 140.106C197.781 139.869 197.819 139.586 197.747 139.321L197.054 136.797C201.607 134.673 202.971 131.216 202.255 128.606Z" fill="#F39200"/>
<path d="M175.883 142.627C178.06 142.103 178.415 140.028 178.383 138.781C178.375 138.407 178.376 137.824 177.847 137.855C177.619 137.871 177.441 138.046 177.419 138.26C177.384 139.304 176.915 140.387 176.035 140.997C175.235 141.592 175.102 143.244 175.883 142.627Z" fill="#F99370"/>
<path d="M204.209 144.832C202.72 144.469 201.797 143.278 201.366 142.103C201.236 141.752 201.02 141.208 201.525 141.051C201.744 140.987 201.974 141.087 202.074 141.279C202.492 142.241 203.329 143.088 204.376 143.349C205.342 143.625 205.167 145.134 204.209 144.832Z" fill="#F99370"/>
<path d="M16.4968 225.783H46.8679V222.029H16.4968V225.783Z" fill="#F39200"/>
<path d="M19.5946 229.538H49.9657V225.783H19.5946V229.538Z" fill="#F39200"/>
<path d="M51.1273 214.519H20.7562V218.274H51.1273V214.519Z" fill="#F39200"/>
<path d="M48.0295 218.274H17.6584V222.029H48.0295V218.274Z" fill="#F39200"/>
<path d="M18.8201 233.292H49.1912V229.538H18.8201V233.292Z" fill="#F39200"/>
<path d="M16.4968 237.047H46.8679V233.292H16.4968V237.047Z" fill="#F39200"/>
<path d="M15.7223 240.802H46.0935V237.047H15.7223V240.802Z" fill="#F39200"/>
<path d="M19.5946 244.556H49.9657V240.802H19.5946V244.556Z" fill="#F39200"/>
<path d="M41.1766 225.783H42.9957V222.029H41.1766V225.783Z" fill="#F9B233"/>
<path d="M34.2408 225.783H36.0599V222.029H34.2408V225.783Z" fill="#F9B233"/>
<path d="M27.3049 225.783H29.1239V222.029H27.3049V225.783Z" fill="#F9B233"/>
<path d="M20.369 225.783H22.188V222.029H20.369V225.783Z" fill="#F9B233"/>
<path d="M44.2744 229.538H46.0935V225.783H44.2744V229.538Z" fill="#F9B233"/>
<path d="M37.3385 229.538H39.1576V225.783H37.3385V229.538Z" fill="#F9B233"/>
<path d="M30.4026 229.538H32.2216V225.783H30.4026V229.538Z" fill="#F9B233"/>
<path d="M23.4667 229.538H25.2858V225.783H23.4667V229.538Z" fill="#F9B233"/>
<path d="M26.4474 214.519H24.6283V218.274H26.4474V214.519Z" fill="#F9B233"/>
<path d="M33.3832 214.519H31.5641V218.274H33.3832V214.519Z" fill="#F9B233"/>
<path d="M40.3192 214.519H38.5001V218.274H40.3192V214.519Z" fill="#F9B233"/>
<path d="M47.2553 214.519H45.4361V218.274H47.2553V214.519Z" fill="#F9B233"/>
<path d="M23.3496 218.274H21.5306V222.029H23.3496V218.274Z" fill="#F9B233"/>
<path d="M30.2856 218.274H28.4666V222.029H30.2856V218.274Z" fill="#F9B233"/>
<path d="M37.2214 218.274H35.4023V222.029H37.2214V218.274Z" fill="#F9B233"/>
<path d="M44.1574 218.274H42.3383V222.029H44.1574V218.274Z" fill="#F9B233"/>
<path d="M43.5 233.292H45.3191V229.538H43.5V233.292Z" fill="#F9B233"/>
<path d="M36.5641 233.292H38.3831V229.538H36.5641V233.292Z" fill="#F9B233"/>
<path d="M29.6283 233.292H31.4473V229.538H29.6283V233.292Z" fill="#F9B233"/>
<path d="M22.6923 233.292H24.5113V229.538H22.6923V233.292Z" fill="#F9B233"/>
<path d="M41.1766 237.047H42.9957V233.292H41.1766V237.047Z" fill="#F9B233"/>
<path d="M34.2408 237.047H36.0599V233.292H34.2408V237.047Z" fill="#F9B233"/>
<path d="M27.3049 237.047H29.1239V233.292H27.3049V237.047Z" fill="#F9B233"/>
<path d="M20.369 237.047H22.188V233.292H20.369V237.047Z" fill="#F9B233"/>
<path d="M40.4022 240.802H42.2212V237.047H40.4022V240.802Z" fill="#F9B233"/>
<path d="M33.4663 240.802H35.2854V237.047H33.4663V240.802Z" fill="#F9B233"/>
<path d="M26.5303 240.802H28.3494V237.047H26.5303V240.802Z" fill="#F9B233"/>
<path d="M19.5946 240.802H21.4136V237.047H19.5946V240.802Z" fill="#F9B233"/>
<path d="M44.2744 244.556H46.0935V240.802H44.2744V244.556Z" fill="#F9B233"/>
<path d="M37.3385 244.556H39.1576V240.802H37.3385V244.556Z" fill="#F9B233"/>
<path d="M30.4026 244.556H32.2216V240.802H30.4026V244.556Z" fill="#F9B233"/>
<path d="M23.4667 244.556H25.2858V240.802H23.4667V244.556Z" fill="#F9B233"/>
<path d="M48.0295 199.501H17.6584V203.256H48.0295V199.501Z" fill="#F39200"/>
<path d="M50.3529 203.256H19.9816V207.01H50.3529V203.256Z" fill="#F39200"/>
<path d="M51.1273 207.01H20.7562V210.765H51.1273V207.01Z" fill="#F39200"/>
<path d="M47.2551 210.765H16.884V214.52H47.2551V210.765Z" fill="#F39200"/>
<path d="M23.3496 199.501H21.5306V203.256H23.3496V199.501Z" fill="#F9B233"/>
<path d="M30.2856 199.501H28.4666V203.256H30.2856V199.501Z" fill="#F9B233"/>
<path d="M37.2214 199.501H35.4023V203.256H37.2214V199.501Z" fill="#F9B233"/>
<path d="M44.1574 199.501H42.3383V203.256H44.1574V199.501Z" fill="#F9B233"/>
<path d="M25.673 203.256H23.8539V207.01H25.673V203.256Z" fill="#F9B233"/>
<path d="M32.6088 203.256H30.7897V207.01H32.6088V203.256Z" fill="#F9B233"/>
<path d="M39.5448 203.256H37.7257V207.01H39.5448V203.256Z" fill="#F9B233"/>
<path d="M46.4806 203.256H44.6615V207.01H46.4806V203.256Z" fill="#F9B233"/>
<path d="M26.4474 207.01H24.6283V210.765H26.4474V207.01Z" fill="#F9B233"/>
<path d="M33.3834 207.01H31.5641V210.765H33.3834V207.01Z" fill="#F9B233"/>
<path d="M40.3192 207.01H38.5001V210.765H40.3192V207.01Z" fill="#F9B233"/>
<path d="M47.2551 207.01H45.4361V210.765H47.2551V207.01Z" fill="#F9B233"/>
<path d="M22.5752 210.765H20.7562V214.52H22.5752V210.765Z" fill="#F9B233"/>
<path d="M29.5112 210.765H27.692V214.52H29.5112V210.765Z" fill="#F9B233"/>
<path d="M36.447 210.765H34.6279V214.52H36.447V210.765Z" fill="#F9B233"/>
<path d="M43.383 210.765H41.5638V214.52H43.383V210.765Z" fill="#F9B233"/>
<path d="M56.5043 233.292H86.8755V229.538H56.5043V233.292Z" fill="#F39200"/>
<path d="M54.181 237.047H84.5522V233.292H54.181V237.047Z" fill="#F39200"/>
<path d="M53.4065 240.802H83.7777V237.047H53.4065V240.802Z" fill="#F39200"/>
<path d="M57.2788 244.556H87.6499V240.802H57.2788V244.556Z" fill="#F39200"/>
<path d="M81.1841 233.292H83.0032V229.538H81.1841V233.292Z" fill="#F9B233"/>
<path d="M74.2484 233.292H76.0674V229.538H74.2484V233.292Z" fill="#F9B233"/>
<path d="M67.3124 233.292H69.1314V229.538H67.3124V233.292Z" fill="#F9B233"/>
<path d="M60.3766 233.292H62.1956V229.538H60.3766V233.292Z" fill="#F9B233"/>
<path d="M78.8609 237.047H80.68V233.292H78.8609V237.047Z" fill="#F9B233"/>
<path d="M71.9249 237.047H73.744V233.292H71.9249V237.047Z" fill="#F9B233"/>
<path d="M64.9891 237.047H66.8082V233.292H64.9891V237.047Z" fill="#F9B233"/>
<path d="M58.0532 237.047H59.8722V233.292H58.0532V237.047Z" fill="#F9B233"/>
<path d="M78.0863 240.802H79.9055V237.047H78.0863V240.802Z" fill="#F9B233"/>
<path d="M71.1506 240.802H72.9696V237.047H71.1506V240.802Z" fill="#F9B233"/>
<path d="M64.2146 240.802H66.0337V237.047H64.2146V240.802Z" fill="#F9B233"/>
<path d="M57.2788 240.802H59.0978V237.047H57.2788V240.802Z" fill="#F9B233"/>
<path d="M81.9586 244.556H83.7777V240.802H81.9586V244.556Z" fill="#F9B233"/>
<path d="M75.0226 244.556H76.8417V240.802H75.0226V244.556Z" fill="#F9B233"/>
<path d="M68.0868 244.556H69.9059V240.802H68.0868V244.556Z" fill="#F9B233"/>
<path d="M61.151 244.556H62.9701V240.802H61.151V244.556Z" fill="#F9B233"/>
<path d="M56.5043 218.274H86.8755V214.519H56.5043V218.274Z" fill="#F39200"/>
<path d="M54.181 222.029H84.5522V218.274H54.181V222.029Z" fill="#F39200"/>
<path d="M53.4065 225.783H83.7777V222.029H53.4065V225.783Z" fill="#F39200"/>
<path d="M57.2788 229.538H87.6499V225.783H57.2788V229.538Z" fill="#F39200"/>
<path d="M81.1841 218.274H83.0032V214.519H81.1841V218.274Z" fill="#F9B233"/>
<path d="M74.2484 218.274H76.0674V214.519H74.2484V218.274Z" fill="#F9B233"/>
<path d="M67.3124 218.274H69.1314V214.519H67.3124V218.274Z" fill="#F9B233"/>
<path d="M60.3766 218.274H62.1956V214.519H60.3766V218.274Z" fill="#F9B233"/>
<path d="M78.8609 222.029H80.68V218.274H78.8609V222.029Z" fill="#F9B233"/>
<path d="M71.9249 222.029H73.744V218.274H71.9249V222.029Z" fill="#F9B233"/>
<path d="M64.9891 222.029H66.8082V218.274H64.9891V222.029Z" fill="#F9B233"/>
<path d="M58.0532 222.029H59.8722V218.274H58.0532V222.029Z" fill="#F9B233"/>
<path d="M78.0863 225.783H79.9055V222.029H78.0863V225.783Z" fill="#F9B233"/>
<path d="M71.1506 225.783H72.9696V222.029H71.1506V225.783Z" fill="#F9B233"/>
<path d="M64.2146 225.783H66.0337V222.029H64.2146V225.783Z" fill="#F9B233"/>
<path d="M57.2788 225.783H59.0978V222.029H57.2788V225.783Z" fill="#F9B233"/>
<path d="M81.9586 229.538H83.7777V225.783H81.9586V229.538Z" fill="#F9B233"/>
<path d="M75.0226 229.538H76.8417V225.783H75.0226V229.538Z" fill="#F9B233"/>
<path d="M68.0868 229.538H69.9059V225.783H68.0868V229.538Z" fill="#F9B233"/>
<path d="M61.151 229.538H62.9701V225.783H61.151V229.538Z" fill="#F9B233"/>
<path d="M121.471 229.538H91.1003V233.293H121.471V229.538Z" fill="#F39200"/>
<path d="M123.795 233.293H93.4236V237.047H123.795V233.293Z" fill="#F39200"/>
<path d="M124.569 237.047H94.1981V240.802H124.569V237.047Z" fill="#F39200"/>
<path d="M120.697 240.802H90.3259V244.556H120.697V240.802Z" fill="#F39200"/>
<path d="M96.7916 229.538H94.9726V233.293H96.7916V229.538Z" fill="#F9B233"/>
<path d="M103.727 229.538H101.908V233.293H103.727V229.538Z" fill="#F9B233"/>
<path d="M110.663 229.538H108.844V233.293H110.663V229.538Z" fill="#F9B233"/>
<path d="M117.599 229.538H115.78V233.293H117.599V229.538Z" fill="#F9B233"/>
<path d="M99.1148 233.293H97.2958V237.047H99.1148V233.293Z" fill="#F9B233"/>
<path d="M106.051 233.293H104.232V237.047H106.051V233.293Z" fill="#F9B233"/>
<path d="M112.987 233.293H111.168V237.047H112.987V233.293Z" fill="#F9B233"/>
<path d="M119.923 233.293H118.104V237.047H119.923V233.293Z" fill="#F9B233"/>
<path d="M99.8894 237.047H98.0702V240.802H99.8894V237.047Z" fill="#F9B233"/>
<path d="M106.825 237.047H105.006V240.802H106.825V237.047Z" fill="#F9B233"/>
<path d="M113.761 237.047H111.942V240.802H113.761V237.047Z" fill="#F9B233"/>
<path d="M120.697 237.047H118.878V240.802H120.697V237.047Z" fill="#F9B233"/>
<path d="M96.0171 240.802H94.1981V244.556H96.0171V240.802Z" fill="#F9B233"/>
<path d="M102.953 240.802H101.134V244.556H102.953V240.802Z" fill="#F9B233"/>
<path d="M109.889 240.802H108.07V244.556H109.889V240.802Z" fill="#F9B233"/>
<path d="M116.825 240.802H115.006V244.556H116.825V240.802Z" fill="#F9B233"/>
<path d="M18.8021 248.126H49.1732V244.372H18.8021V248.126Z" fill="#F39200"/>
<path d="M16.5149 251.881H46.886V248.126H16.5149V251.881Z" fill="#F39200"/>
<path d="M43.4819 248.126H45.301V244.372H43.4819V248.126Z" fill="#F9B233"/>
<path d="M36.5458 248.126H38.365V244.372H36.5458V248.126Z" fill="#F9B233"/>
<path d="M29.6101 248.126H31.4292V244.372H29.6101V248.126Z" fill="#F9B233"/>
<path d="M22.6741 248.126H24.4932V244.372H22.6741V248.126Z" fill="#F9B233"/>
<path d="M41.1947 251.881H43.0138V248.126H41.1947V251.881Z" fill="#F9B233"/>
<path d="M34.2589 251.881H36.078V248.126H34.2589V251.881Z" fill="#F9B233"/>
<path d="M27.3229 251.881H29.142V248.126H27.3229V251.881Z" fill="#F9B233"/>
<path d="M20.387 251.881H22.2062V248.126H20.387V251.881Z" fill="#F9B233"/>
<path d="M56.4862 248.126H86.8574V244.372H56.4862V248.126Z" fill="#F39200"/>
<path d="M58.0487 251.881H88.4199V248.126H58.0487V251.881Z" fill="#F39200"/>
<path d="M81.166 248.126H82.9852V244.372H81.166V248.126Z" fill="#F9B233"/>
<path d="M74.2302 248.126H76.0493V244.372H74.2302V248.126Z" fill="#F9B233"/>
<path d="M67.2944 248.126H69.1135V244.372H67.2944V248.126Z" fill="#F9B233"/>
<path d="M60.3585 248.126H62.1775V244.372H60.3585V248.126Z" fill="#F9B233"/>
<path d="M82.7285 251.881H84.5476V248.126H82.7285V251.881Z" fill="#F9B233"/>
<path d="M75.7928 251.881H77.6118V248.126H75.7928V251.881Z" fill="#F9B233"/>
<path d="M68.8567 251.881H70.6758V248.126H68.8567V251.881Z" fill="#F9B233"/>
<path d="M61.9209 251.881H63.74V248.126H61.9209V251.881Z" fill="#F9B233"/>
<path d="M127.649 244.372H97.2777V248.126H127.649V244.372Z" fill="#F39200"/>
<path d="M123.777 248.126H93.4057V251.881H123.777V248.126Z" fill="#F39200"/>
<path d="M102.969 244.372H101.15V248.126H102.969V244.372Z" fill="#F9B233"/>
<path d="M109.905 244.372H108.086V248.126H109.905V244.372Z" fill="#F9B233"/>
<path d="M116.841 244.372H115.022V248.126H116.841V244.372Z" fill="#F9B233"/>
<path d="M123.777 244.372H121.958V248.126H123.777V244.372Z" fill="#F9B233"/>
<path d="M99.0968 248.126H97.2777V251.881H99.0968V248.126Z" fill="#F9B233"/>
<path d="M106.033 248.126H104.214V251.881H106.033V248.126Z" fill="#F9B233"/>
<path d="M112.969 248.126H111.15V251.881H112.969V248.126Z" fill="#F9B233"/>
<path d="M119.905 248.126H118.086V251.881H119.905V248.126Z" fill="#F9B233"/>
<path d="M73.5432 162.006C73.5432 162.006 71.8391 158.822 66.6756 159.777C61.5121 160.733 60.3109 167.121 58.5658 170.032C54.8692 176.198 53.7748 182.742 55.7134 185.879C57.8664 189.363 62.5949 187.986 69.5042 187.342C76.8774 186.654 79.9493 180.412 75.3372 171.852L73.5432 162.006Z" fill="#163260"/>
<path d="M71.4416 176.834C73.47 179.714 74.8003 193.777 74.8453 194.87C77.2214 194.693 82.9301 194.266 85.3641 194.085C86.0372 188.933 78.997 178.392 72.599 177.158C72.599 177.156 72.599 177.156 72.599 177.156C71.8786 176.92 71.4416 176.834 71.4416 176.834Z" fill="#3A72AA"/>
<path d="M101.621 254.305L91.348 254.223C91.3698 252.623 91.7981 249.394 91.4669 247.57C91.4672 247.57 95.9027 248.115 95.9027 248.115C95.7822 248.992 95.5146 250.894 97.0097 251.345C98.9467 251.929 101.053 251.742 102.265 253.189C102.58 253.675 102.211 254.31 101.621 254.305Z" fill="#F99370"/>
<path d="M91.044 253.257C91.0831 253.595 91.1762 253.925 91.3479 254.223L101.721 254.306C102.225 254.31 102.594 253.829 102.431 253.364C102.046 252.278 100.692 250.695 95.9128 250.414C95.9128 250.414 94.2822 250.872 91.6119 250.379C91.6119 250.379 90.8834 251.884 91.044 253.257Z" fill="#1D3F70"/>
<path d="M99.3804 252.983C99.4623 252.983 99.5404 252.935 99.5739 252.857C99.9618 251.947 100.65 251.673 100.679 251.661C101.227 250.845 99.6588 251.417 99.186 252.7C99.1262 252.831 99.2343 252.986 99.3804 252.983Z" fill="#E8C0A6"/>
<path d="M97.7489 252.778C97.8379 252.778 97.9201 252.722 97.9485 252.636C98.2935 251.58 99.2435 251.099 99.2531 251.094C99.7523 250.144 97.9286 251.151 97.5482 252.511C97.5032 252.64 97.6096 252.781 97.7489 252.778Z" fill="#E8C0A6"/>
<path d="M95.8926 252.541C95.9787 252.54 96.0592 252.488 96.09 252.405C96.4914 251.31 97.4028 250.719 97.412 250.713C97.7987 249.716 96.14 250.915 95.6942 252.267C95.6432 252.397 95.7505 252.544 95.8926 252.541Z" fill="#E8C0A6"/>
<path d="M102.425 253.348L91.044 253.257C91.0831 253.595 91.1762 253.925 91.3479 254.223L101.721 254.305C102.232 254.31 102.603 253.815 102.425 253.348Z" fill="#395B96"/>
<path d="M68.9693 216.196C74.0248 215.976 82.8248 213.24 86.6417 219.494C90.8203 226.325 89.8432 240.843 89.4425 247.858C94.9979 249.584 97.9771 247.835 97.9771 247.835C100.301 233.47 107.996 200.742 81.968 205.35C81.9685 205.349 64.5047 205.396 64.5047 205.396C61.5998 211.203 64.2256 216.112 68.9693 216.196Z" fill="#EB5648"/>
<path d="M89.3024 254.337L79.0297 254.255C79.0516 252.656 79.4798 249.426 79.1486 247.602C79.149 247.602 83.5844 248.148 83.5844 248.148C83.4639 249.025 83.1616 250.927 84.6914 251.377C86.6325 251.948 88.735 251.774 89.9467 253.221C90.2621 253.708 89.893 254.342 89.3024 254.337Z" fill="#F99370"/>
<path d="M78.7256 253.289C78.7647 253.628 78.8578 253.957 79.0295 254.255L89.4022 254.338C89.9065 254.342 90.2758 253.862 90.1124 253.397C89.7276 252.311 88.3737 250.728 83.5945 250.446C83.5945 250.446 81.9639 250.905 79.2936 250.412C79.2936 250.412 78.5652 251.916 78.7256 253.289Z" fill="#1D3F70"/>
<path d="M87.0621 253.016C87.1442 253.016 87.2222 252.968 87.2556 252.889C87.6434 251.979 88.3314 251.705 88.3606 251.694C88.9086 250.878 87.3405 251.449 86.8677 252.733C86.8078 252.864 86.916 253.019 87.0621 253.016Z" fill="#E8C0A6"/>
<path d="M85.4306 252.811C85.5194 252.811 85.6018 252.755 85.6302 252.668C85.9752 251.613 86.9252 251.132 86.9347 251.127C87.4339 250.177 85.6103 251.183 85.2298 252.544C85.1849 252.673 85.2912 252.813 85.4306 252.811Z" fill="#E8C0A6"/>
<path d="M83.5742 252.573C83.6603 252.573 83.7409 252.521 83.7716 252.437C84.1731 251.342 85.0845 250.751 85.0937 250.745C85.4804 249.748 83.8217 250.948 83.3759 252.3C83.325 252.43 83.4323 252.576 83.5742 252.573Z" fill="#E8C0A6"/>
<path d="M90.1066 253.38L78.7258 253.289C78.7648 253.628 78.858 253.957 79.0297 254.255L89.4024 254.338C89.9137 254.343 90.2842 253.847 90.1066 253.38Z" fill="#395B96"/>
<path d="M80.5461 205.353L82.0699 215.953C88.6066 218.441 89.0655 225.309 89.6827 232.84C92.6736 221.194 92.4078 209.253 80.5461 205.353Z" fill="#CE3932"/>
<path d="M60.8122 217.221C66.3741 219.919 72.9654 216.388 76.7074 223.695C79.7288 230.093 78.0796 242.339 77.2704 247.891C82.8258 249.617 85.8049 247.868 85.8049 247.868C89.0609 235.473 96.5063 206.667 75.2329 205.368C69.4084 205.203 61.7554 205.273 56.607 204.985C56.607 204.985 53.9346 213.885 60.8122 217.221Z" fill="#EB5648"/>
<path d="M80.3907 190.537C80.4922 190.537 80.574 190.45 80.5643 190.351C80.2087 187.542 77.1411 183.907 76.7396 184.102C76.4667 184.446 80.0011 187.455 80.2161 190.381C80.2244 190.47 80.3009 190.537 80.3907 190.537Z" fill="#23659B"/>
<path d="M56.4957 202.056C56.0534 205.194 56.2827 206.52 56.2827 206.52C64.8631 207.535 70.2715 207.569 80.7115 206.12C74.0609 186.896 88.9434 199.228 71.4416 176.834C71.3998 176.838 67.1642 177.223 67.1257 177.225C62.2331 180.83 59.0882 185.6 56.4957 202.056Z" fill="#3A72AA"/>
<path d="M98.7141 206.405L75.6007 206.467L80.1558 189.954L103.13 189.892L98.7141 206.405Z" fill="#163260"/>
<path d="M98.7209 206.321L75.6073 206.384L75.6105 207.504L98.7241 207.441L98.7209 206.321Z" fill="#234270"/>
<path d="M80.5031 189.953L79.6762 189.956L75.2154 206.387L64.2466 206.416L64.2497 207.537L75.9885 207.505L75.9857 206.503L80.5031 189.953Z" fill="#0B274F"/>
<path d="M59.5348 180.441C54.2178 184.345 51.3917 191.352 52.8171 197.713C53.3664 201.287 55.6924 204.681 59.3186 205.684C61.1094 206.376 69.4576 207.474 69.0607 204.59C68.9265 203.898 68.2956 203.645 67.6844 203.462C66.6774 203.119 65.6394 202.74 64.6788 202.318C62.9585 201.454 60.7475 200.646 60.3682 198.769C59.5595 194.385 61.3926 190.091 64.7498 187.219C64.7439 187.222 64.7656 187.206 64.716 187.241C69.2673 183.92 64.1134 177.162 59.5348 180.441Z" fill="#F99370"/>
<path d="M56.4105 204.908C59.1267 206.08 61.697 206.435 63.6723 206.5C63.6723 206.5 63.2082 203.63 65.3347 202.442C53.3116 193.594 70.4371 189.81 67.1089 176.77C54.2451 177.028 41.0162 196.055 56.4105 204.908Z" fill="#3A72AA"/>
<path d="M74.157 206.389C74.157 206.389 73.1175 202.887 66.9736 203.307L65.6955 206.412L74.157 206.389Z" fill="#F99370"/>
<path d="M62.2467 206.407C63.1257 206.5 63.6726 206.5 63.6726 206.5C63.6726 206.5 63.2085 203.63 65.3349 202.442C65.3349 202.442 64.8099 202.112 64.1233 201.525C64.1233 201.525 61.7938 203.2 62.2467 206.407Z" fill="#23659B"/>
<path d="M64.2341 202.015C64.3893 202.018 64.4717 201.814 64.3475 201.716C59.0067 197.106 61.6024 192.205 64.7625 189.026C64.9176 188.87 64.6571 188.628 64.5053 188.795C61.1446 192.086 58.6033 197.514 64.2341 202.015Z" fill="#23659B"/>
<path d="M62.3615 206.424C63.3561 205.856 59.5625 206.148 56.673 204.828C56.5836 204.792 56.4817 204.834 56.4452 204.921C56.4088 205.008 56.4517 205.107 56.5411 205.143C59.5263 206.326 62.3226 206.423 62.3615 206.424Z" fill="#23659B"/>
<path d="M65.935 182.024C66.0605 182.921 66.9421 183.198 67.1621 183.15C70.253 181.854 68.0632 185.927 69.3373 186.338C70.4089 186.683 70.5323 185.323 71.4654 185.246C72.8201 185.134 73.0977 185.852 73.5722 185.414C74.2329 184.804 72.6258 183.747 72.8284 182.658C72.9706 181.893 74.533 182.657 74.508 181.084C74.4791 179.539 72.6569 177.229 72.599 177.158C72.599 177.156 72.599 177.156 72.599 177.156C71.4545 176.538 68.9677 176.828 67.8383 176.844C67.8204 176.734 67.1088 176.77 67.1088 176.77C67.1088 176.77 66.6107 176.665 66.1318 176.843C65.8996 178.1 65.6858 180.678 65.935 182.024Z" fill="#F4D4BE"/>
<path d="M71.3331 175.34L71.4417 176.834C71.4417 176.834 71.5892 178.272 71.5969 180.945C71.6075 184.703 70.6531 184.268 69.3239 181.646C68.5935 180.206 67.1093 176.888 67.1093 176.888C67.1093 176.888 67.1132 175.905 67.031 175.303L71.3331 175.34Z" fill="#F99370"/>
<path d="M66.1793 171.074C66.1972 171.145 66.2177 171.217 66.2421 171.286C66.3344 171.212 66.8682 173.699 67.0648 175.594C68.9139 176.643 71.0496 176.497 71.4152 176.386C71.3087 173.58 71.0545 169.383 68.8341 168.606C67.3453 168.15 65.7727 169.583 66.1793 171.074Z" fill="#E57D61"/>
<path d="M71.7466 161.816C77.319 161.15 78.2278 169.717 74.4483 172.881L71.7466 161.816Z" fill="#163260"/>
<path d="M65.1919 167.873C64.9283 169.745 64.917 171.94 65.9945 173.55L65.9969 173.551C68.943 178.215 78.6391 175.177 75.9644 169.644C75.5717 168.938 75.3492 168.079 75.3179 167.35C75.2087 159.7 65.9498 161.331 65.1919 167.873Z" fill="#F99370"/>
<path d="M72.5288 168.85C72.7937 168.589 72.3678 168.19 72.1109 168.458C71.8461 168.718 72.272 169.118 72.5288 168.85Z" fill="#C16256"/>
<path d="M74.9801 169.161C75.2449 168.9 74.819 168.501 74.5622 168.769C74.2973 169.029 74.7232 169.429 74.9801 169.161Z" fill="#C16256"/>
<path d="M73.5263 171.286C74.0167 171.36 74.7269 171.235 74.2615 170.663C73.8244 170.232 73.7704 169.059 73.7699 169.047C73.7664 168.91 73.5425 168.917 73.5505 169.056C73.5526 169.108 73.6086 170.323 74.1054 170.813C74.1617 170.869 74.2202 170.946 74.179 170.993C74.0628 171.128 73.511 171.152 73.1931 170.937C73.1443 170.904 73.0751 170.916 73.0405 170.964C72.9591 171.188 73.3555 171.235 73.5263 171.286Z" fill="#C16256"/>
<path d="M65.1919 167.873C64.9283 169.745 64.917 171.94 65.9945 173.55L65.9969 173.551C65.4985 172.343 65.6778 170.024 65.6778 170.024L66.3591 169.172C73.3469 169.062 74.36 163.924 74.36 163.924C71.2775 159.914 65.5442 163.558 65.1919 167.873Z" fill="#E57D61"/>
<path d="M73.8225 163.28C73.8225 163.28 72.7978 168.339 66.4738 168.662L64.7744 166.957C63.9742 162.557 69.333 158.036 73.8225 163.28Z" fill="#163260"/>
<path d="M63.7459 168.428C63.5276 170.569 66.3051 170.808 66.4738 168.662C66.6921 166.521 63.9146 166.283 63.7459 168.428Z" fill="#F99370"/>
<path d="M64.3983 167.873L64.3985 167.872C64.6788 167.023 66.3582 167.925 65.6447 167.959C65.6416 167.921 64.8977 167.49 64.6671 167.866C65.4001 168.201 65.6479 169.529 65.2229 169.101C65.2222 169.093 65.1318 168.336 64.5552 168.052C64.2746 169.986 64.011 168.646 64.3983 167.873Z" fill="#C16256"/>
<path d="M64.6002 169.705C64.5025 170.001 64.9827 170.144 65.0714 169.845C65.1691 169.548 64.6889 169.406 64.6002 169.705Z" fill="#F4D4BE"/>
<path d="M71.6151 187.315C71.6076 187.935 72.6076 187.933 72.5964 187.313C72.6039 186.692 71.6039 186.695 71.6151 187.315Z" fill="#23659B"/>
<path d="M72.5881 190.678C72.5806 191.298 73.5806 191.295 73.5695 190.675C73.577 190.055 72.577 190.058 72.5881 190.678Z" fill="#23659B"/>
<path d="M72.5968 193.706C72.5893 194.326 73.5893 194.324 73.5781 193.704C73.5856 193.084 72.5856 193.086 72.5968 193.706Z" fill="#23659B"/>
<path d="M89.6085 245.448C89.522 246.951 89.4424 247.858 89.4424 247.858C94.9978 249.584 97.9769 247.835 97.9769 247.835C97.9769 247.835 98.1303 247.081 98.366 245.78C98.2996 245.813 94.8136 247.493 89.6085 245.448Z" fill="#CE3932"/>
<path d="M77.2704 247.891C82.8258 249.617 85.8049 247.868 85.8049 247.868C85.8049 247.868 86.0057 247.172 86.3168 245.969C86.3168 245.969 83.2445 247.528 77.5552 245.993C77.3908 247.181 77.2704 247.891 77.2704 247.891Z" fill="#CE3932"/>
<path d="M73.8212 206.355C74.9134 206.385 70.9306 203.739 69.7466 204.392C69.7372 204.486 69.8072 204.569 69.9031 204.578C72.1409 204.8 73.6328 206.349 73.8212 206.355Z" fill="#E57D61"/>
<path d="M72.1375 206.42C72.9652 206.073 70.3893 205.489 69.1139 205.157C69.02 205.138 68.927 205.198 68.9077 205.29C68.8885 205.382 68.9495 205.472 69.0441 205.49C70.4025 205.759 72.0007 206.406 72.1375 206.42Z" fill="#E57D61"/>
<path d="M71.6161 167.984C71.6428 167.984 71.6698 167.976 71.6924 167.958C72.3887 167.425 73.0236 167.596 73.0502 167.604C73.1162 167.622 73.1849 167.586 73.2042 167.522C73.2235 167.458 73.1865 167.391 73.1209 167.371C73.0898 167.362 72.3404 167.153 71.5387 167.768C71.4847 167.809 71.4754 167.885 71.5178 167.938C71.5425 167.969 71.5791 167.984 71.6161 167.984Z" fill="#C16256"/>
<path d="M75.2672 168.267C75.2911 168.267 75.3153 168.26 75.3366 168.246C75.3935 168.208 75.4081 168.133 75.3696 168.077C75.3531 168.054 74.9643 167.505 74.3185 167.531C74.25 167.533 74.1967 167.59 74.1996 167.657C74.2025 167.724 74.2599 167.777 74.3291 167.773C74.8367 167.755 75.1609 168.209 75.164 168.213C75.1881 168.248 75.2273 168.267 75.2672 168.267Z" fill="#C16256"/>
<path d="M72.0108 172.219C71.6545 171.952 71.5258 171.553 71.7179 171.309C71.9101 171.065 72.3398 171.084 72.6961 171.35C73.0525 171.617 73.1811 172.017 72.9888 172.26C72.8988 172.375 72.7564 172.431 72.5939 172.432C72.4098 172.432 72.1999 172.361 72.0108 172.219ZM71.915 171.456C71.8246 171.571 71.9039 171.833 72.1621 172.027C72.4206 172.22 72.7014 172.227 72.7916 172.113C72.882 171.998 72.8028 171.736 72.5445 171.542C72.3949 171.43 72.238 171.381 72.1148 171.381C72.0252 171.381 71.9531 171.408 71.915 171.456Z" fill="#C16256"/>
<path d="M256.791 212.692C256.791 212.692 262.031 213.735 265.443 217.741C268.854 221.748 275.598 235.183 264.751 238.311L259.372 232.547C259.372 232.547 260.977 231.227 260.125 226.781C259.272 222.335 255.415 215.766 256.791 212.692Z" fill="#EB5648"/>
<path d="M247.205 212.692C247.205 212.692 241.818 213.735 238.406 217.741C234.995 221.748 228.251 235.183 239.098 238.311L244.477 232.547C244.477 232.547 242.871 231.227 243.724 226.781C244.577 222.335 248.582 215.766 247.205 212.692Z" fill="#EB5648"/>
<path d="M239.151 238.241C247.188 241.747 256.702 241.797 264.751 238.311C265.104 234.346 263.705 233.068 263.03 228.65C261.563 219.057 257.695 212.997 257.695 212.997C254.556 211.782 249.255 211.642 246.216 213.075C246.216 213.075 241.806 219.444 241.237 228.177C240.958 232.449 239.151 234.399 239.151 238.241Z" fill="#EB5648"/>
<path d="M255.026 212.299C255.026 212.299 254.599 214.946 251.924 214.867C249.248 214.787 248.927 212.274 248.927 212.274C248.927 212.274 251.64 211.439 255.026 212.299Z" fill="#CE3932"/>
<path d="M251.951 213.863C253.018 213.863 253.883 213.021 253.883 211.982V209.421H250.02V211.982C250.02 213.021 250.884 213.863 251.951 213.863Z" fill="#F99370"/>
<path d="M245.233 204.223C245.72 206.417 248.47 205.85 248.004 203.653C247.517 201.459 244.767 202.026 245.233 204.223Z" fill="#F99370"/>
<path d="M258.67 204.223C258.182 206.417 255.432 205.85 255.898 203.653C256.385 201.459 259.135 202.026 258.67 204.223Z" fill="#F99370"/>
<path d="M246.299 206.593C246.613 213.937 258.706 212.86 257.513 205.485C257.348 204.022 256.81 203.05 256.558 200.718C255.974 195.321 248.1 195.034 247.392 200.678C247.114 202.904 246.281 204.545 246.299 206.593Z" fill="#F99370"/>
<path d="M252.214 205.583C252.764 205.577 253.617 205.216 252.923 204.741C252.356 204.442 251.94 203.298 251.935 203.287C251.89 203.151 251.67 203.225 251.721 203.36C251.739 203.41 252.171 204.596 252.814 204.936C253.259 205.201 252.332 205.458 251.95 205.326C251.89 205.308 251.827 205.34 251.808 205.398C251.776 205.597 252.072 205.569 252.214 205.583Z" fill="#C16256"/>
<path d="M255.655 200.376C252.934 201.606 249.813 197.6 248.147 199.437L247.943 198.314L251.115 196.865L256.178 198.582L255.655 200.376Z" fill="#E57D61"/>
<path d="M247.059 202.378C247.059 202.378 248.008 200.606 248.147 199.437C248.286 198.268 249.899 198.064 251.223 198.979C252.548 199.895 254.201 200.311 255.938 199.687C257.675 199.062 258.799 196.497 257.032 194.984C255.282 193.486 253.463 194.654 251.889 195.234C249.857 195.983 244.754 194.472 247.059 202.378Z" fill="#8C4225"/>
<path d="M256.788 202.294C256.788 202.294 255.368 200.727 255.282 198.646L256.803 198.064C256.803 198.064 257.423 200.088 256.788 202.294Z" fill="#8C4225"/>
<path d="M245.808 204.661C245.882 204.662 245.937 204.589 245.915 204.521C245.526 203.444 245.929 202.893 246.803 203.219C246.935 203.273 247.019 203.067 246.884 203.018C245.96 202.65 245.202 203.22 245.703 204.584C245.717 204.631 245.761 204.661 245.808 204.661Z" fill="#C16256"/>
<path d="M246.716 204.399C247.06 204.372 246.531 203.448 245.69 203.393C245.63 203.39 245.626 203.438 245.622 203.497C245.618 203.557 245.615 203.605 245.676 203.609C246.536 203.695 246.512 204.371 246.716 204.399Z" fill="#C16256"/>
<path d="M260.381 218.635C260.381 218.635 262.75 222.025 263.754 227.042H262.756C262.756 227.042 261.964 223.393 260.381 218.635Z" fill="#CE3932"/>
<path d="M243.409 218.635C243.409 218.635 241.059 221.927 239.878 227.042H241.333C241.333 227.042 241.394 224.615 243.409 218.635Z" fill="#CE3932"/>
<path d="M258.024 204.661C258.072 204.661 258.115 204.631 258.13 204.584C258.631 203.219 257.87 202.65 256.949 203.018C256.815 203.067 256.896 203.272 257.029 203.219C257.82 202.903 258.336 203.382 257.918 204.521C257.895 204.589 257.951 204.662 258.024 204.661Z" fill="#C16256"/>
<path d="M256.989 204.51C257.19 204.484 257.301 203.693 258.157 203.609C258.218 203.605 258.204 203.557 258.2 203.497C258.196 203.438 258.202 203.389 258.142 203.393C257.301 203.449 256.645 204.482 256.989 204.51Z" fill="#C16256"/>
<path d="M257.513 205.485C257.084 203.967 256.891 202.084 256.435 201.389C256.815 203.176 256.916 204.744 257.007 205.754C257.127 207.076 256.192 207.136 255.282 206.805C253.351 205.913 251.037 205.414 248.88 206.53C245.39 208.34 247.354 202.632 247.548 201.022C247.035 202.409 246.67 203.334 246.299 205.557C245.356 213.912 258.793 213.733 257.513 205.485ZM249.131 207.16C249.932 206.744 250.929 206.495 251.931 206.534C252.989 206.575 254.051 206.975 254.839 207.494C255.75 208.092 255.643 209.452 254.628 209.863C252.513 210.737 252.621 208.506 251.944 208.49C251.102 208.469 251.283 209.957 250.167 209.925C248.736 209.877 247.563 208.082 249.131 207.16Z" fill="#8C4225"/>
<path d="M252.193 207.575C252.51 207.575 252.736 207.531 252.757 207.526C252.813 207.515 252.849 207.462 252.837 207.407C252.826 207.352 252.771 207.317 252.715 207.328C252.704 207.33 251.624 207.539 250.866 207.004C250.819 206.972 250.754 206.982 250.721 207.027C250.687 207.072 250.698 207.136 250.744 207.168C251.215 207.5 251.781 207.575 252.193 207.575Z" fill="#C16256"/>
<path d="M248.919 202.092C248.93 202.092 248.942 202.09 248.954 202.086C249.877 201.756 250.873 201.812 250.884 201.813C250.94 201.817 250.99 201.774 250.994 201.718C250.997 201.662 250.954 201.614 250.896 201.611C250.854 201.608 249.846 201.551 248.883 201.896C248.829 201.915 248.802 201.973 248.821 202.025C248.836 202.066 248.876 202.092 248.919 202.092Z" fill="#C16256"/>
<path d="M254.925 202.092C254.968 202.092 255.007 202.067 255.023 202.025C255.042 201.973 255.015 201.915 254.961 201.896C253.998 201.551 252.99 201.608 252.947 201.611C252.89 201.614 252.847 201.662 252.85 201.718C252.854 201.774 252.904 201.816 252.96 201.813C252.97 201.812 253.968 201.756 254.89 202.086C254.901 202.09 254.913 202.092 254.925 202.092Z" fill="#C16256"/>
<path d="M262.495 252.946C262.495 252.946 264.606 255.141 265.887 255.689C267.605 256.424 271.757 257.643 272.606 257.896C274.926 258.589 274.72 260.744 271.648 260.438C267.75 260.242 262.193 260.032 259.584 257.554C256.08 255.717 259.223 250.732 262.495 252.946Z" fill="#F99370"/>
<path d="M241.653 252.946C241.653 252.946 239.542 255.141 238.261 255.689C236.543 256.424 232.391 257.643 231.542 257.896C229.222 258.589 229.428 260.744 232.5 260.438C236.398 260.242 241.955 260.032 244.564 257.554C248.068 255.717 244.925 250.732 241.653 252.946Z" fill="#F99370"/>
<path d="M273.955 237.474C273.955 237.474 269.339 237.238 265.048 238.235C258.923 239.658 251.947 240.541 238.74 238.013C234.521 237.205 229.535 237.528 229.535 237.528C231.961 239.197 234.286 240.694 236.541 241.984C249.316 249.29 259.864 249.944 273.955 237.474Z" fill="#23659B"/>
<path d="M265.048 241.758H238.696V226.751C238.696 226.411 238.979 226.136 239.328 226.136H264.417C264.766 226.136 265.049 226.411 265.049 226.751L265.048 241.758Z" fill="#163260"/>
<path d="M243.204 259.095C302.309 248.872 283.254 220.109 240.228 252.282C239.556 256.514 243.204 259.095 243.204 259.095Z" fill="#3A72AA"/>
<path d="M243.204 259.095C243.27 259.097 243.927 258.984 245.024 258.765C245.024 258.765 241.056 256.167 241.546 251.394C240.701 251.954 240.228 252.282 240.228 252.282C239.556 256.514 243.204 259.095 243.204 259.095Z" fill="#23659B"/>
<path d="M240.78 252.836L242.237 255.439L250.141 257.737C250.141 257.737 251.48 257.453 252.156 257.284L240.78 252.836Z" fill="#23659B"/>
<path d="M259.12 258.805C260.095 258.998 260.677 259.097 260.739 259.095C260.739 259.095 264.387 256.514 263.715 252.282C221.192 220.381 202.201 248.514 259.12 258.805Z" fill="#3A72AA"/>
<path d="M259.12 258.805C260.095 258.998 260.677 259.097 260.739 259.095C260.739 259.095 264.387 256.514 263.715 252.282C263.715 252.282 263.245 251.887 262.369 251.376C262.369 251.376 262.642 255.818 259.12 258.805Z" fill="#23659B"/>
<path d="M263.011 252.328C263.068 252.328 263.124 252.304 263.164 252.259C263.235 252.177 263.224 252.054 263.14 251.985C263.075 251.931 256.566 246.591 251.282 243.755C251.185 243.703 251.064 243.737 251.011 243.831C250.957 243.925 250.993 244.044 251.089 244.095C256.339 246.913 262.817 252.228 262.882 252.281C262.92 252.313 262.965 252.328 263.011 252.328Z" fill="#23659B"/>
<path d="M250.464 203.513C250.538 203.371 250.48 203.197 250.334 203.125C250.189 203.053 250.01 203.11 249.936 203.252C249.862 203.394 249.92 203.567 250.066 203.64C250.212 203.712 250.39 203.655 250.464 203.513Z" fill="#C16256"/>
<path d="M254.013 203.52C254.087 203.378 254.029 203.204 253.883 203.132C253.738 203.06 253.559 203.116 253.485 203.258C253.411 203.401 253.469 203.574 253.615 203.647C253.761 203.719 253.939 203.662 254.013 203.52Z" fill="#C16256"/>
<path d="M274.484 259.987C274.925 258.456 274.008 256.866 272.436 256.436L264.479 254.767C264.479 254.767 264.365 257.164 262.407 259.165L270.837 261.982C272.41 262.412 274.042 261.519 274.484 259.987Z" fill="#1D3F70"/>
<path d="M270.597 260.989C270.609 260.988 270.621 260.987 270.633 260.984C270.785 260.955 270.884 260.811 270.854 260.663C270.501 258.939 271.799 257.806 271.854 257.759C271.97 257.659 271.982 257.487 271.881 257.373C271.779 257.26 271.602 257.248 271.486 257.347C271.42 257.402 269.887 258.728 270.304 260.77C270.331 260.906 270.459 260.999 270.597 260.989Z" fill="#E8C0A6"/>
<path d="M268.563 260.19C268.575 260.189 268.587 260.187 268.599 260.185C268.751 260.155 268.849 260.012 268.819 259.864C268.471 258.162 269.627 257.33 269.677 257.295C269.802 257.207 269.831 257.037 269.742 256.915C269.652 256.792 269.478 256.763 269.352 256.85C269.29 256.892 267.848 257.911 268.269 259.97C268.297 260.107 268.424 260.199 268.563 260.19Z" fill="#E8C0A6"/>
<path d="M266.427 259.4C266.436 259.399 266.445 259.398 266.454 259.397C266.607 259.372 266.71 259.232 266.685 259.083C266.404 257.415 267.378 256.816 267.42 256.792C267.551 256.714 267.594 256.546 267.515 256.418C267.436 256.289 267.267 256.246 267.134 256.322C267.078 256.353 265.786 257.119 266.132 259.171C266.155 259.312 266.285 259.409 266.427 259.4Z" fill="#E8C0A6"/>
<path d="M229.976 260.103C229.506 258.58 230.392 256.974 231.956 256.515L239.832 254.634C239.832 254.634 239.731 257.206 241.727 259.17L233.661 262.031C232.097 262.49 230.447 261.627 229.976 260.103Z" fill="#1D3F70"/>
<path d="M233.881 261.035C233.869 261.034 233.857 261.033 233.845 261.031C233.693 261.004 233.592 260.862 233.619 260.714C233.938 258.983 232.619 257.874 232.563 257.828C232.445 257.73 232.43 257.558 232.529 257.443C232.629 257.328 232.805 257.313 232.924 257.409C232.99 257.464 234.549 258.762 234.171 260.81C234.146 260.947 234.02 261.041 233.881 261.035Z" fill="#E8C0A6"/>
<path d="M235.9 260.198C235.888 260.198 235.876 260.196 235.864 260.194C235.712 260.167 235.611 260.026 235.638 259.877C235.953 258.169 234.781 257.358 234.731 257.325C234.604 257.239 234.572 257.069 234.659 256.945C234.746 256.821 234.92 256.789 235.047 256.873C235.11 256.915 236.571 257.907 236.19 259.974C236.165 260.111 236.039 260.205 235.9 260.198Z" fill="#E8C0A6"/>
<path d="M238.02 259.37C238.011 259.369 238.003 259.368 237.994 259.367C237.84 259.346 237.734 259.207 237.756 259.058C238.006 257.385 237.02 256.804 236.978 256.78C236.845 256.704 236.799 256.538 236.875 256.408C236.952 256.278 237.121 256.231 237.255 256.305C237.311 256.335 238.618 257.077 238.311 259.136C238.291 259.277 238.163 259.377 238.02 259.37Z" fill="#E8C0A6"/>
</svg>
